<?xml version="1.0" encoding="UTF-8" standalone="no"?>
<svg
   xmlns:dc="http://purl.org/dc/elements/1.1/"
   xmlns:cc="http://creativecommons.org/ns#"
   xmlns:rdf="http://www.w3.org/1999/02/22-rdf-syntax-ns#"
   xmlns:svg="http://www.w3.org/2000/svg"
   xmlns="http://www.w3.org/2000/svg"
   version="1.1"
   id="svg2"
   viewBox="0 0 248 246.12799"
   height="246.12799"
   width="248">
  <defs
     id="defs4" />
  <metadata
     id="metadata7">
    <rdf:RDF>
      <cc:Work
         rdf:about="">
        <dc:format>image/svg+xml</dc:format>
        <dc:type
           rdf:resource="http://purl.org/dc/dcmitype/StillImage" />
        <dc:title></dc:title>
      </cc:Work>
    </rdf:RDF>
  </metadata>
  <g
     transform="translate(-83.571433,-553.0765)"
     id="layer1">
    <path
       id="path3347"
       d="m 97.142863,797.50504 c -1.00345,-1.0034 -1.57143,-3.3528 -1.57143,-6.5 l 0,-4.9285 -6,0 -6,0 0,-37.5 0,-37.50004 6,0 6,0 0,-4.06574 c 0,-7.80182 0.26629,-7.93426 15.953397,-7.93426 7.63566,0 14.59483,0.27314 15.46481,0.60699 1.17182,0.44967 1.58179,2.00477 1.58179,6 l 0,5.39301 6.5,0 6.5,0 0,-11.46482 c 0,-12.97813 0.32654,-13.53518 7.93426,-13.53518 l 4.06574,0 0,-4.06574 c 0,-7.7723 0.31711,-7.93426 15.53518,-7.93426 l 13.46482,0 0,-15.37756 c 0,-11.24536 0.34272,-15.66198 1.27539,-16.43603 0.70147,-0.58216 3.51397,-1.19977 6.25,-1.37245 l 4.97461,-0.31396 0,-14.5 c 0,-13.83333 -0.0919,-14.5 -2,-14.5 -1.70341,0 -2.04441,0.76648 -2.29944,5.16858 -0.16627,2.87013 -0.92101,5.68445 -1.69718,6.32862 -0.984,0.81665 -6.98786,1.06275 -20.28278,0.83141 l -18.88503,-0.32861 -4.89135,-3.02644 c -3.02355,-1.87076 -6.04702,-4.89377 -7.91778,-7.91655 -2.98994,-4.83114 -3.0303,-5.08227 -3.34658,-20.82006 -0.3127,-15.55992 -0.2579,-16.05714 2.35917,-21.40626 5.33359,-10.90147 12.85939,-13.73928 34.96097,-13.18304 13.08973,0.32944 14.31703,0.53115 18.87595,3.10235 2.68178,1.5125 5.04428,2.75 5.25,2.75 0.20573,0 0.37405,-1.71 0.37405,-3.8 0,-5.61853 1.12542,-6.2 12,-6.2 10.87458,0 12,0.58147 12,6.2 0,2.09 0.16832,3.8 0.37405,3.8 0.20572,0 2.56822,-1.2375 5.25,-2.75 4.55892,-2.5712 5.78622,-2.77291 18.87595,-3.10235 21.94707,-0.55236 29.53882,2.26902 34.86491,12.95711 2.50815,5.03319 2.63509,6.03933 2.63509,20.88582 l 0,15.59789 -3.25,5.41986 c -2.18776,3.64841 -4.85735,6.41212 -8.16779,8.45576 l -4.91778,3.03591 -18.88503,0.32861 c -13.29492,0.23134 -19.29878,-0.0148 -20.28278,-0.83141 -0.77617,-0.64417 -1.53091,-3.45849 -1.69718,-6.32862 -0.25503,-4.4021 -0.59603,-5.16858 -2.29944,-5.16858 -1.90805,0 -2,0.66667 -2,14.5 l 0,14.5 4.97461,0.31396 c 2.73603,0.17268 5.54853,0.79029 6.25,1.37245 0.93267,0.77405 1.27539,5.19067 1.27539,16.43603 l 0,15.37756 13.46482,0 c 15.21807,0 15.53518,0.16196 15.53518,7.93426 l 0,4.06574 4.06574,0 c 7.60772,0 7.93426,0.55705 7.93426,13.53518 l 0,11.46482 6.5,0 6.5,0 0,-5.39301 c 0,-3.99523 0.40997,-5.55033 1.58179,-6 0.86998,-0.33385 7.82915,-0.60699 15.46481,-0.60699 15.68711,0 15.9534,0.13244 15.9534,7.93426 l 0,4.06574 6,0 6,0 0,37.50004 0,37.5 -6,0 -6,0 0,4.9285 c 0,7.7067 -0.76606,8.0715 -16.94898,8.0715 -9.97154,0 -14.10012,-0.3543 -14.86461,-1.2754 -0.58217,-0.7015 -1.19977,-3.514 -1.37245,-6.25 l -0.31396,-4.9746 -78.5,0 -78.5,0 -0.31396,4.9746 c -0.17268,2.736 -0.79028,5.5485 -1.37245,6.25 -1.69365,2.0407 -28.164517,1.7816 -30.242157,-0.2961 z m 23.428567,-48.4285 0,-42.00004 -8,0 -8,0 0,42.00004 0,42 8,0 8,0 0,-42 z m 190,0 0,-42.00004 -8,0 -8,0 0,42.00004 0,42 8,0 8,0 0,-42 z m -214.999997,0 c 0,-28.33337 -0.046,-29.00004 -2,-29.00004 -1.95402,0 -2,0.66667 -2,29.00004 0,28.3333 0.046,29 2,29 1.95402,0 2,-0.6667 2,-29 z m 190.999997,0 0,-29.00004 -79,0 -79,0 0,29.00004 0,29 79,0 79,0 0,-29 z m 37,0 c 0,-28.33337 -0.046,-29.00004 -2,-29.00004 -1.95402,0 -2,0.66667 -2,29.00004 0,28.3333 0.046,29 2,29 1.95402,0 2,-0.6667 2,-29 z m -58,-46.00004 0,-8 -58,0 -58,0 0,8 0,8 58,0 58,0 0,-8 z m -13,-19 c 0,-1.97037 -0.66667,-2 -45,-2 -44.33333,0 -45,0.0296 -45,2 0,1.97037 0.66667,2 45,2 44.33333,0 45,-0.0296 45,-2 z m -28.21922,-22.75 0.28078,-12.25 -17.03078,0 -17.03078,0 0,11.83333 c 0,6.50834 0.31074,12.14407 0.69052,12.52386 0.37979,0.37979 7.91729,0.56729 16.75,0.41667 l 16.05948,-0.27386 0.28078,-12.25 z m -12.78078,-35.25 0,-15 -4,0 -4,0 0,15 0,15 4,0 4,0 0,-15 z m -29,-14.56574 c 0,-8.77962 -1.02369,-8.43426 25,-8.43426 26.05592,0 25,-0.36084 25,8.54325 l 0,4.67474 14.75,-0.36453 c 16.1538,-0.39923 19.30216,-1.35428 23.64547,-7.1728 1.86899,-2.50379 2.13666,-4.40646 2.39157,-17 0.32675,-16.14255 -0.59762,-19.34372 -6.77822,-23.4736 -3.36118,-2.24594 -4.10662,-2.32115 -20.01976,-2.01993 l -16.52859,0.31287 -5.98023,4.62075 c -12.11337,9.35963 -20.84711,9.35963 -32.96048,0 l -5.98023,-4.62075 -16.52859,-0.31287 c -15.91314,-0.30122 -16.65858,-0.22601 -20.01976,2.01993 -5.8818,3.93022 -6.98807,7.45938 -6.98807,22.29294 0,14.25795 1.07497,18.08362 6.11969,21.7792 3.86779,2.8334 7.97354,3.50481 22.1272,3.61844 l 12.75,0.10236 0,-4.56574 z m 27.41821,-42.04125 c 1.06756,-0.40966 1.58179,-1.87257 1.58179,-4.5 0,-3.87518 -0.0183,-3.89301 -4,-3.89301 -3.98582,0 -4,0.0139 -4,3.91667 0,4.54033 2.21879,6.08781 6.41821,4.47634 z"
       style="fill:#080808" />
  </g>
</svg>
