<?xml version="1.0" encoding="UTF-8" standalone="no"?>
<svg
   xmlns:dc="http://purl.org/dc/elements/1.1/"
   xmlns:cc="http://creativecommons.org/ns#"
   xmlns:rdf="http://www.w3.org/1999/02/22-rdf-syntax-ns#"
   xmlns:svg="http://www.w3.org/2000/svg"
   xmlns="http://www.w3.org/2000/svg"
   version="1.1"
   id="svg2"
   viewBox="0 0 245.70226 239.33176"
   height="239.33176"
   width="245.70226">
  <defs
     id="defs4" />
  <metadata
     id="metadata7">
    <rdf:RDF>
      <cc:Work
         rdf:about="">
        <dc:format>image/svg+xml</dc:format>
        <dc:type
           rdf:resource="http://purl.org/dc/dcmitype/StillImage" />
        <dc:title></dc:title>
      </cc:Work>
    </rdf:RDF>
  </metadata>
  <g
     transform="translate(-136.51037,-526.29366)"
     id="layer1">
    <path
       id="path3347"
       d="m 315.60505,755.8597 c -5.55777,-5.3836 -28.58209,-27.8544 -51.16517,-49.9352 l -41.06014,-40.14686 -20.85224,4.93515 c -11.46874,2.71434 -21.93469,4.93516 -23.25768,4.93516 -1.78466,0 -7.61256,-5.13979 -22.58244,-19.91609 l -20.17701,-19.9161 4.83795,-19.8339 c 2.66087,-10.90865 5.03115,-20.55771 5.26729,-21.44236 0.23613,-0.88464 13.58172,-14.38464 29.65687,-30 l 29.22754,-28.39155 21.68471,-4.92714 21.68471,-4.92715 14.81529,14.09895 c 8.14841,7.75442 17.49676,16.82965 20.77412,20.16717 l 5.95883,6.06823 -4.31906,18.25997 c -2.37548,10.04298 -4.87135,19.88803 -5.54636,21.87789 l -1.2273,3.61792 29.08753,28.31742 c 15.99814,15.57458 39.14787,38.21912 51.44383,50.32121 l 22.3563,22.00379 -0.51354,3.82878 c -0.76253,5.68511 -5.91577,13.01641 -17.67617,25.14741 -11.71966,12.089 -20.1654,19.1825 -27.45227,23.0569 -8.19377,4.3567 -9.49747,3.909 -20.96559,-7.1996 z m 21.53102,-3.4385 c 8.08001,-5.3665 27.38085,-24.4786 32.38667,-32.0699 l 3.82237,-5.79663 -5.89124,-5.95336 c -3.24018,-3.27435 -6.13033,-5.94779 -6.42255,-5.94098 -0.29221,0.007 -1.4756,1.47146 -2.62975,3.25478 -6.31666,9.76014 -26.00942,29.09209 -36.68326,36.01119 l -4.78171,3.0996 5.75041,5.811 c 3.16272,3.1961 6.27571,5.8111 6.91775,5.8111 0.64205,0 4.03113,-1.9021 7.53131,-4.2268 z m -17.99606,-19.4031 c 8.66286,-6.3063 28.86218,-26.75539 32.36782,-32.76814 l 2.85569,-4.898 -5.43175,-4.82018 c -2.98746,-2.65109 -5.69445,-4.8345 -6.01553,-4.852 -0.32108,-0.0175 -2.26691,2.412 -4.32407,5.3989 -4.75091,6.8981 -26.43659,28.0424 -33.34215,32.50972 -2.8875,1.868 -5.25,3.6426 -5.25,3.9436 0,1.364 9.60539,10.116 11.1024,10.116 0.92267,0 4.53959,-2.0835 8.03759,-4.6299 z m -19.0113,-16.61492 c 8.15029,-5.44256 27.45292,-24.53735 32.39904,-32.05019 l 3.81514,-5.79497 -5.38728,-5.45503 c -2.963,-3.00027 -5.63781,-5.45504 -5.94403,-5.45504 -0.30621,0 -1.44464,1.6875 -2.52985,3.75 -2.78988,5.30237 -28.87392,31.05593 -35.70234,35.25 l -5.6984,3.5 5.17536,5.25 c 2.84644,2.8875 5.70194,5.25005 6.34556,5.25005 0.64361,0 4.03067,-1.9102 7.5268,-4.24482 z m -8.06618,-25.25523 c 8.80571,-7.55324 21.70947,-21.80451 24.59605,-27.16458 l 1.78565,-3.31573 -4.93452,-5.00985 c -2.71398,-2.75541 -5.40142,-4.99774 -5.9721,-4.98294 -0.57067,0.0148 -2.16259,1.90641 -3.53759,4.2036 -4.82891,8.06757 -33.12716,34.80075 -39.22885,37.05924 -0.79796,0.29536 0.75752,2.55644 4.17858,6.07407 l 5.44972,5.60356 4.75116,-2.73369 c 2.61314,-1.50352 8.4235,-5.88368 12.9119,-9.73368 z m -28.04916,-9.12651 c 6.88687,-4.55202 31.81296,-29.59594 34.46816,-34.63111 l 1.98151,-3.75762 -5.53556,-5.53556 -5.53555,-5.53555 -3.94596,5.74764 c -6.78511,9.88313 -26.72187,28.7655 -38.06181,36.04884 -1.74455,1.12047 -1.47666,1.58116 3.61586,6.21817 3.025,2.75442 5.95601,5.02237 6.51335,5.03987 0.55734,0.0175 3.48234,-1.6001 6.5,-3.59468 z m -18.3157,-17.25647 c 11.7178,-7.57358 36.26295,-33.38077 36.29274,-38.15881 0.005,-0.84799 -1.98517,-3.49952 -4.42323,-5.8923 l -4.43284,-4.3505 -22.05709,21.36817 -22.05708,21.36818 4.70233,4.77412 c 2.58629,2.62577 4.98699,4.77412 5.33489,4.77412 0.34791,0 3.33603,-1.74734 6.64028,-3.88298 z m -51.01136,-1.13476 c 7.04754,-1.65976 13.46287,-3.25389 14.25629,-3.54252 0.98318,-0.35765 -2.51988,-4.51402 -11,-13.05146 -6.84342,-6.88968 -13.68703,-13.43114 -15.20801,-14.53657 l -2.76543,-2.00988 -13.23457,3.10876 c -7.27902,1.70981 -13.87726,3.33704 -14.66276,3.61607 -0.94323,0.33506 3.64085,5.40088 13.5,14.9187 8.2105,7.92625 15.23702,14.4346 15.61448,14.463 0.37746,0.0284 6.45245,-1.30634 13.5,-2.9661 z m 49.66286,-31.59704 c 13.28297,-12.98813 24.15011,-24.12563 24.14921,-24.75 -9e-4,-0.62437 -6.7509,-7.75377 -15,-15.84311 l -14.99836,-14.7079 -25,24.45539 -25,24.45539 15.41789,15.00251 c 8.47984,8.25137 15.61196,15.0025 15.84915,15.0025 0.23719,0 11.29914,-10.62665 24.58211,-23.61478 z m -79.69187,-6.9061 14.71635,-3.52088 6.56319,-6.1681 c 3.60975,-3.39245 15.96816,-15.42056 27.46314,-26.72912 l 20.89995,-20.56102 3.89304,-15.37368 c 2.14116,-8.45552 3.76118,-15.50113 3.60004,-15.6569 -0.16114,-0.15578 -7.42684,1.36238 -16.14599,3.37368 l -15.853,3.6569 -27.147,26.45009 -27.147,26.45008 -3.65961,14.04992 c -3.96909,15.23806 -4.34714,17.54991 -2.86993,17.54991 0.53376,0 7.59282,-1.5844 15.68682,-3.52088 z m 101.64822,-69.82483 c -7.97808,-7.78486 -14.85313,-14.28514 -15.27789,-14.44507 -0.42476,-0.15993 -2.33609,6.14007 -4.2474,14 l -3.47511,14.29078 15.09745,14.61552 15.09745,14.61551 3.65555,-14.46122 3.65554,-14.46122 -14.50559,-14.1543 z"
       style="fill:#060606" />
  </g>
</svg>
