<?xml version="1.0" encoding="UTF-8" standalone="no"?>
<svg
   xmlns:dc="http://purl.org/dc/elements/1.1/"
   xmlns:cc="http://creativecommons.org/ns#"
   xmlns:rdf="http://www.w3.org/1999/02/22-rdf-syntax-ns#"
   xmlns:svg="http://www.w3.org/2000/svg"
   xmlns="http://www.w3.org/2000/svg"
   version="1.1"
   id="svg2"
   viewBox="0 0 250.21381 244.21416"
   height="244.21416"
   width="250.21381">
  <defs
     id="defs4" />
  <metadata
     id="metadata7">
    <rdf:RDF>
      <cc:Work
         rdf:about="">
        <dc:format>image/svg+xml</dc:format>
        <dc:type
           rdf:resource="http://purl.org/dc/dcmitype/StillImage" />
        <dc:title></dc:title>
      </cc:Work>
    </rdf:RDF>
  </metadata>
  <g
     transform="translate(-328.54631,-580.66124)"
     id="layer1">
    <path
       id="path3360"
       d="m 329.85322,823.56829 c -1.74254,-1.7425 -1.74254,-239.85744 0,-241.59998 1.74276,-1.74276 245.85724,-1.74276 247.6,0 1.74254,1.74254 1.74254,239.85748 0,241.59998 -1.74276,1.7428 -245.85724,1.7428 -247.6,0 z m 240.8,-120.79998 0,-114 -117,0 -117,0 0,114 0,113.99998 117,0 117,0 0,-113.99998 z m -123.5,85.58268 c -5.76741,-2.5744 -11.50868,-10.96595 -11.49442,-16.80056 0.026,-10.62612 9.0255,-19.7382 19.49442,-19.7382 7.44523,0 15.93502,5.65077 18.43638,12.27118 2.39238,6.33196 0.78117,14.81398 -3.80697,20.04131 -4.53567,5.16757 -15.80527,7.27227 -22.62941,4.22627 z m 14.19567,-6.53868 c 7.68632,-4.68665 8.95353,-13.80933 2.73313,-19.67592 -2.97059,-2.80163 -4.33214,-3.36808 -8.09571,-3.36808 -7.77875,0 -13.33903,5.27736 -13.32935,12.65113 0.008,6.20218 6.355,12.21194 12.99626,12.30599 1.375,0.0195 3.93805,-0.84143 5.69567,-1.91312 z m 15.80433,-21.044 -12.97114,-13 -33.01443,-0.002 -33.01443,-0.002 -23.5,-20.12154 c -12.925,-11.06684 -23.87305,-20.76464 -24.32899,-21.55067 -0.48974,-0.84428 -0.33732,-2.02156 0.37244,-2.87678 1.0275,-1.23805 11.24161,-1.44764 70.55052,-1.44764 l 69.34909,0 31.12153,33.25 c 17.11684,18.2875 31.35499,33.81823 31.64034,34.51273 0.28535,0.69451 -0.0366,1.93201 -0.7155,2.75 -1.04333,1.25715 -5.97555,1.48727 -31.8763,1.48727 l -30.64199,0 -12.97114,-13 z M 351.31989,696.10164 c -2.10336,-2.10335 1.48638,-5.88022 24.4047,-25.67688 l 25.07137,-21.65645 32.67863,-0.01 32.67863,-0.01 13.5,-11.98044 13.5,-11.98044 18,0.12581 c 9.9,0.0692 23.39532,0.40229 29.9896,0.74022 10.26387,0.52597 12.03693,0.86262 12.31841,2.33889 0.21507,1.12794 -10.49575,13.32186 -30.96266,35.25 l -31.29146,33.52552 -69.61028,0 c -38.28565,0 -69.91028,-0.3 -70.27694,-0.66667 z m 164.40186,-34.58333 27.35729,-29.25 -11.96291,-0.61441 c -6.5796,-0.33793 -17.23765,-0.67543 -23.68456,-0.75 l -11.72165,-0.13559 -13.59772,12 -13.59772,12 -32.68063,0.0189 -32.68063,0.0189 -20.81093,17.98111 -20.81093,17.98111 63.41655,0 63.41656,0 27.35728,-29.25 z m -43.27717,27.31112 c -15.87407,-5.07542 -17.16358,-26.58545 -1.996,-33.2948 16.1743,-7.15466 31.69108,11.32252 21.91465,26.09569 -3.96309,5.98864 -13.22962,9.3378 -19.91865,7.19911 z"
       style="fill:#040404" />
  </g>
</svg>
