<?xml version="1.0" encoding="UTF-8" standalone="no"?>
<svg
   xmlns:dc="http://purl.org/dc/elements/1.1/"
   xmlns:cc="http://creativecommons.org/ns#"
   xmlns:rdf="http://www.w3.org/1999/02/22-rdf-syntax-ns#"
   xmlns:svg="http://www.w3.org/2000/svg"
   xmlns="http://www.w3.org/2000/svg"
   version="1.1"
   id="svg2"
   viewBox="0 0 245.74298 245.85937"
   height="245.85938"
   width="245.74298">
  <defs
     id="defs4" />
  <metadata
     id="metadata7">
    <rdf:RDF>
      <cc:Work
         rdf:about="">
        <dc:format>image/svg+xml</dc:format>
        <dc:type
           rdf:resource="http://purl.org/dc/dcmitype/StillImage" />
        <dc:title></dc:title>
      </cc:Work>
    </rdf:RDF>
  </metadata>
  <g
     transform="translate(-162.42859,-260.91877)"
     id="layer1">
    <path
       id="path3360"
       d="m 217.33771,505.42554 c -6.01551,-1.93206 -13.34268,-8.48104 -16.65195,-14.88342 -2.17341,-4.20487 -2.64816,-6.46791 -2.64816,-12.62335 0,-6.15544 0.47475,-8.41848 2.64816,-12.62335 3.34525,-6.47199 10.83942,-13.1427 16.45133,-14.64366 4.84728,-1.29645 5.04593,-1.96236 2.78159,-9.32406 -1.47587,-4.79828 -22.14072,-117.6566 -26.4419,-144.40893 -1.19378,-7.425 -2.39831,-14.2875 -2.67673,-15.25 -0.4509,-1.55871 -2.02921,-1.75 -14.43885,-1.75 l -13.93261,0 0,-9.5 0,-9.5 22.33903,0 22.33904,0 4.3461,25.52741 c 3.94704,23.18344 4.53571,25.56824 6.41097,25.97202 1.13567,0.24454 44.36486,5.4587 96.06486,11.58704 51.7,6.12834 94.10823,11.23666 94.24051,11.35182 0.13227,0.11516 -5.05309,23.12616 -11.52302,51.13555 l -11.76353,50.92616 -72.83374,0.25656 -72.83374,0.25656 0.65509,2.6101 c 0.3603,1.43556 0.9146,3.90761 1.23176,5.49344 l 0.57667,2.88334 66.83749,0 c 65.11746,0 66.9797,0.0532 72.36366,2.06761 18.99048,7.10525 24.6261,32.3597 10.42245,46.70534 -6.34277,6.40619 -11.9167,8.73107 -20.8736,8.70636 -8.83358,-0.0244 -14.49702,-2.23193 -20.25839,-7.89659 -6.57766,-6.46723 -8.24161,-10.77425 -8.24161,-21.33278 l 0,-9.25005 -43.61648,5e-5 -43.61648,6e-5 0.49995,6.98747 c 0.62874,8.78743 -0.88337,14.32165 -5.60462,20.51255 -7.30387,9.57746 -20.67421,13.72569 -32.25325,10.00675 z m 16.34088,-21.55824 c 3.33621,-3.61534 3.55564,-7.6546 0.61868,-11.38835 -2.94027,-3.73794 -6.36287,-4.88222 -10.50962,-3.51367 -4.16701,1.37524 -6.35906,4.38863 -6.35906,8.74174 0,4.54483 1.55678,7.10891 5.32874,8.77668 4.17248,1.84487 7.55143,1.03537 10.92126,-2.6164 z m 142.34659,1.52481 c 1.15313,-0.72513 2.68359,-2.73554 3.40102,-4.46758 1.11258,-2.68601 1.06716,-3.64673 -0.30886,-6.53227 -3.10055,-6.50193 -10.90162,-8.06916 -15.54778,-3.12354 -4.65434,4.95432 -3.34172,11.78297 2.86247,14.89141 3.53829,1.77277 5.84656,1.58797 9.59315,-0.76802 z m -6.21833,-69.22334 c 1.6204,-5.52728 14.57522,-63.62985 14.25795,-63.94713 -0.4695,-0.46949 -164.01266,-20.13046 -164.44862,-19.76981 -0.17183,0.14213 3.17078,19.43034 7.42802,42.86268 l 7.74042,42.60426 67.2546,0 c 63.18989,0 67.2856,-0.10577 67.76763,-1.75 z"
       style="fill:#030303" />
  </g>
</svg>
