<?xml version="1.0" encoding="UTF-8" standalone="no"?>
<svg
   xmlns:dc="http://purl.org/dc/elements/1.1/"
   xmlns:cc="http://creativecommons.org/ns#"
   xmlns:rdf="http://www.w3.org/1999/02/22-rdf-syntax-ns#"
   xmlns:svg="http://www.w3.org/2000/svg"
   xmlns="http://www.w3.org/2000/svg"
   version="1.1"
   id="svg2"
   viewBox="0 0 249 106.0001"
   height="106.0001"
   width="249">
  <defs
     id="defs4" />
  <metadata
     id="metadata7">
    <rdf:RDF>
      <cc:Work
         rdf:about="">
        <dc:format>image/svg+xml</dc:format>
        <dc:type
           rdf:resource="http://purl.org/dc/dcmitype/StillImage" />
        <dc:title></dc:title>
      </cc:Work>
    </rdf:RDF>
  </metadata>
  <g
     transform="translate(-74.57147,-710.49233)"
     id="layer1">
    <path
       id="path3373"
       d="m 101.57147,814.49243 c 0,-1.89744 0.66667,-2 13,-2 7.15,0 13.3375,-0.0178 13.75,-0.0396 0.4125,-0.0218 0.8938,0.87821 1.06955,2 0.30885,1.9713 -0.15159,2.0396 -13.75,2.0396 -13.40288,0 -14.06955,-0.0948 -14.06955,-2 z m 56,0.0541 c 0,-1.81754 0.89691,-1.96595 13.5978,-2.25 7.47878,-0.16727 13.81866,0.0549 14.08861,0.49377 0.26995,0.43883 0.24006,1.45133 -0.0664,2.25 -0.44917,1.1705 -3.18154,1.45213 -14.08863,1.45213 -12.73928,0 -13.53138,-0.11391 -13.53138,-1.94588 z m 55,-0.0541 c 0,-1.89263 0.66667,-2 12.41821,-2 6.83002,0 13.13002,-0.27314 14,-0.60699 1.19311,-0.45784 1.58179,0.0336 1.58179,2 l 0,2.60699 -14,0 c -13.33333,0 -14,-0.0952 -14,-2 z m 56,0 c 0,-1.89263 0.66667,-2 12.41821,-2 6.83002,0 13.13002,-0.27314 14,-0.60699 1.19311,-0.45784 1.58179,0.0336 1.58179,2 l 0,2.60699 -14,0 c -13.33333,0 -14,-0.0952 -14,-2 z m -169,-10 0,-4 -12.5,0 c -11.83333,0 -12.5,-0.10667 -12.5,-2 0,-1.89333 0.66667,-2 12.5,-2 7.66667,0 12.5,-0.38667 12.5,-1 0,-0.55 0.9,-1 2,-1 1.7037,0 2,0.66667 2,4.5 l 0,4.5 12,0 12,0 0,-4.5 c 0,-3.83333 0.2963,-4.5 2,-4.5 1.1,0 2,0.45 2,1 0,0.61111 4.66667,1 12,1 7.33333,0 12,-0.38889 12,-1 0,-0.55 0.9,-1 2,-1 1.7037,0 2,0.66667 2,4.5 l 0,4.5 11.5,0 11.5,0 0,-4.5 c 0,-4.13333 0.2037,-4.5 2.5,-4.5 1.375,0 2.5,0.45 2.5,1 0,0.6087 4.5,1 11.5,1 7,0 11.5,-0.3913 11.5,-1 0,-0.55 0.9,-1 2,-1 1.7037,0 2,0.66667 2,4.5 l 0,4.5 12,0 12,0 0,-4.5 c 0,-3.83333 0.2963,-4.5 2,-4.5 1.1,0 2,0.45 2,1 0,0.61111 4.66667,1 12,1 7.33333,0 12,-0.38889 12,-1 0,-0.55 0.9,-1 2,-1 1.7037,0 2,0.66667 2,4.5 l 0,4.5 12,0 12,0 0,-4.5 c 0,-3.83333 0.2963,-4.5 2,-4.5 1.1,0 2,0.45 2,1 0,0.61333 4.83333,1 12.5,1 11.83333,0 12.5,0.10667 12.5,2 0,1.89333 -0.66667,2 -12.5,2 l -12.5,0 0,4 0,4 -16,0 -16,0 0,-4.03174 0,-4.03173 -11.75,0.28173 -11.75,0.28174 -0.31186,3.77508 -0.31186,3.77508 -15.68814,-0.27508 -15.68814,-0.27508 -0.31037,-3.75 -0.31036,-3.75 -11.37927,0 -11.37927,0 -0.31036,3.75 -0.31037,3.75 -15.68814,0.27508 -15.68814,0.27508 -0.31186,-3.77508 -0.31186,-3.77508 -11.75,-0.28174 -11.75,-0.28173 0,4.03173 0,4.03174 -16,0 -16,0 0,-4 z m 0,-49.5 c 0,-1.25333 -2.05556,-1.5 -12.5,-1.5 -11.83333,0 -12.5,-0.10667 -12.5,-2 0,-1.89333 0.66667,-2 12.5,-2 l 12.5,0 0,-9.75945 c 0,-8.67645 -0.22194,-9.89806 -2,-11.00848 -1.70951,-1.0676 -2,-2.33203 -2,-8.70536 0,-6.34841 0.28741,-7.61016 1.93426,-8.49153 1.10927,-0.59366 8.97554,-1.03518 18.44329,-1.03518 15.92636,0 16.56399,0.0784 18.06575,2.22251 2.3035,3.2887 2.05044,11.88008 -0.4433,15.05036 -1.68429,2.14123 -2,4.05678 -2,12.13486 l 0,9.59227 12,0 12,0 0,-9.58971 c 0,-8.73838 -0.19974,-9.75145 -2.25,-11.41164 -1.91146,-1.54781 -2.25,-2.79012 -2.25,-8.2566 0,-9.87979 -0.28167,-9.74205 19.92245,-9.74205 12.02698,0 17.53736,0.35981 18.37755,1.2 1.82204,1.82204 1.58248,15.23768 -0.3,16.8 -1.14807,0.95281 -1.5,3.56235 -1.5,11.12244 l 0,9.87756 11.5,0 11.5,0 0,-9.84501 c 0,-8.57502 -0.258,-10.0785 -2,-11.65499 -1.58967,-1.43863 -2,-3.07997 -2,-8 0,-9.39602 0.22172,-9.5 20.25731,-9.5 19.95439,0 19.74269,-0.1079 19.74269,10.06295 0,5.83709 -0.313,7.11558 -2,8.16912 -1.77806,1.11042 -2,2.33203 -2,11.00848 l 0,9.75945 12,0 12,0 0,-9.77776 c 0,-8.54027 -0.25312,-9.99449 -2,-11.49021 -1.61559,-1.38331 -2,-2.94994 -2,-8.15081 0,-9.62771 -0.0966,-9.58122 19.91644,-9.58122 19.98211,0 20.08356,0.0497 20.08356,9.83853 0,4.94356 -0.40041,6.52389 -2,7.8935 -1.74688,1.49572 -2,2.94994 -2,11.49021 l 0,9.77776 12.5,0 c 11.83333,0 12.5,0.10667 12.5,2 0,1.89333 -0.66667,2 -12.5,2 -10.44444,0 -12.5,0.24667 -12.5,1.5 0,0.83333 -0.88889,1.5 -2,1.5 -1.90123,0 -2,-0.66667 -2,-13.5 l 0,-13.5 -12,0 -12,0 0,13.5 c 0,12.83333 -0.0988,13.5 -2,13.5 -1.11111,0 -2,-0.66667 -2,-1.5 0,-1.24661 -1.94793,-1.5 -11.53138,-1.5 -9.32763,0 -11.64139,0.28666 -12.10699,1.5 -0.31659,0.825 -1.42746,1.5 -2.46862,1.5 -1.76408,0 -1.89301,-0.92159 -1.89301,-13.53174 l 0,-13.53173 -11.75,0.28173 -11.75,0.28174 -0.27903,13.25 c -0.23157,10.99654 -0.53453,13.25 -1.78138,13.25 -0.8263,0 -1.76138,-0.675 -2.07796,-1.5 -0.8919,-2.32425 -22.14428,-2.1795 -23.85678,0.16248 -0.72008,0.98477 -1.88606,1.40521 -2.86024,1.03138 -1.40972,-0.54096 -1.64461,-2.49226 -1.64461,-13.66248 l 0,-13.03138 -11.5,0 -11.5,0 0,13.03138 c 0,11.1025 -0.24035,13.12362 -1.62379,13.6545 -0.97718,0.37497 -1.99249,-0.0357 -2.54969,-1.03139 -1.31777,-2.35473 -23.82652,-2.50068 -23.82652,-0.15449 0,0.83333 -0.88889,1.5 -2,1.5 -1.90124,0 -2,-0.66667 -2,-13.5 l 0,-13.5 -12,0 -12,0 0,13.5 c 0,12.83333 -0.0988,13.5 -2,13.5 -1.11111,0 -2,-0.66667 -2,-1.5 z m 3,-35 c 0,-4.22222 -0.34849,-5.5 -1.5,-5.5 -1.15152,0 -1.5,1.27778 -1.5,5.5 0,4.22222 0.34848,5.5 1.5,5.5 1.15151,0 1.5,-1.27778 1.5,-5.5 z m 11,0 0,-5.5 -3.5,0 -3.5,0 0,5.5 0,5.5 3.5,0 3.5,0 0,-5.5 z m 10.80226,0.25 c -0.29476,-5.11969 -0.38293,-5.25778 -3.55226,-5.56336 l -3.25,-0.31336 0,5.56336 0,5.56336 3.55226,0 3.55226,0 -0.30226,-5.25 z m 6.69774,-0.25 c 0,-2.97778 -0.47989,-4.99329 -1.25,-5.25 -0.90196,-0.30065 -1.25,1.16111 -1.25,5.25 0,4.08889 0.34804,5.55065 1.25,5.25 0.77011,-0.25671 1.25,-2.27222 1.25,-5.25 z m 27.5,0 c 0,-4.22222 -0.34849,-5.5 -1.5,-5.5 -1.15152,0 -1.5,1.27778 -1.5,5.5 0,4.22222 0.34848,5.5 1.5,5.5 1.15151,0 1.5,-1.27778 1.5,-5.5 z m 10,0 c 0,-5.44444 -0.0303,-5.5 -3,-5.5 -2.9697,0 -3,0.0556 -3,5.5 0,5.44444 0.0303,5.5 3,5.5 2.9697,0 3,-0.0556 3,-5.5 z m 11,0 c 0,-5.44444 -0.0303,-5.5 -3,-5.5 -2.9697,0 -3,0.0556 -3,5.5 0,5.44444 0.0303,5.5 3,5.5 2.9697,0 3,-0.0556 3,-5.5 z m 7,-0.0833 c 0,-7.34326 -2.36934,-6.99496 -2.80226,0.41194 -0.24182,4.13732 0.008,5.17139 1.25,5.17139 1.21767,0 1.55226,-1.20349 1.55226,-5.58333 z m 27.80226,0.33333 c -0.22256,-3.86566 -0.69779,-5.25 -1.80226,-5.25 -1.01919,0 -1.60149,1.23574 -1.81663,3.85516 -0.39032,4.75232 0.27542,6.64484 2.3375,6.64484 1.28215,0 1.5261,-0.99952 1.28139,-5.25 z m 10.19774,-0.25 c 0,-5.44444 -0.0303,-5.5 -3,-5.5 -2.9697,0 -3,0.0556 -3,5.5 0,5.44444 0.0303,5.5 3,5.5 2.9697,0 3,-0.0556 3,-5.5 z m 11,0 0,-5.5 -3.5,0 -3.5,0 0,5.5 0,5.5 3.5,0 3.5,0 0,-5.5 z m 7,0 c 0,-4.22222 -0.34848,-5.5 -1.5,-5.5 -1.15152,0 -1.5,1.27778 -1.5,5.5 0,4.22222 0.34848,5.5 1.5,5.5 1.15152,0 1.5,-1.27778 1.5,-5.5 z m 27,0 c 0,-4.22222 -0.34848,-5.5 -1.5,-5.5 -1.15152,0 -1.5,1.27778 -1.5,5.5 0,4.22222 0.34848,5.5 1.5,5.5 1.15152,0 1.5,-1.27778 1.5,-5.5 z m 11,-0.0634 0,-5.56336 -3.25,0.31336 c -3.16933,0.30558 -3.2575,0.44367 -3.55226,5.56336 l -0.30226,5.25 3.55226,0 3.55226,0 0,-5.56336 z m 11,0.0634 0,-5.5 -3.5,0 -3.5,0 0,5.5 0,5.5 3.5,0 3.5,0 0,-5.5 z m 6.80226,0.3286 c -0.43292,-7.40689 -2.80226,-7.75519 -2.80226,-0.41193 0,4.37984 0.33459,5.58333 1.55226,5.58333 1.24187,0 1.49182,-1.03407 1.25,-5.1714 z"
       style="fill:#0c0c0c" />
  </g>
</svg>
