<?xml version="1.0" encoding="UTF-8" standalone="no"?>
<svg
   xmlns:dc="http://purl.org/dc/elements/1.1/"
   xmlns:cc="http://creativecommons.org/ns#"
   xmlns:rdf="http://www.w3.org/1999/02/22-rdf-syntax-ns#"
   xmlns:svg="http://www.w3.org/2000/svg"
   xmlns="http://www.w3.org/2000/svg"
   version="1.1"
   id="svg2"
   viewBox="0 0 244.8317 239.98689"
   height="239.98689"
   width="244.8317">
  <defs
     id="defs4" />
  <metadata
     id="metadata7">
    <rdf:RDF>
      <cc:Work
         rdf:about="">
        <dc:format>image/svg+xml</dc:format>
        <dc:type
           rdf:resource="http://purl.org/dc/dcmitype/StillImage" />
        <dc:title></dc:title>
      </cc:Work>
    </rdf:RDF>
  </metadata>
  <g
     transform="translate(-145.0255,-110.62251)"
     id="layer1">
    <path
       id="path3386"
       d="m 244.24984,349.71192 c -21.8939,-3.75637 -45.89935,-17.48537 -65.08245,-37.22142 -19.35043,-19.9082 -30.75401,-41.46217 -33.53191,-63.37882 -1.20924,-9.54051 -0.56516,-12.33354 2.84416,-12.33354 1.14885,0 1.37756,-7.18274 1.37756,-43.26287 l 0,-43.26287 -2.25,-0.98713 c -2.19297,-0.96211 -2.25695,-1.42736 -2.52412,-18.3556 -0.18879,-11.9615 0.0828,-17.79855 0.87244,-18.75 1.70061,-2.04911 85.10221,-2.04976 86.80279,-6.8e-4 0.79087,0.95294 1.06124,6.91831 0.87245,19.25 -0.27059,17.6752 -0.29798,17.87262 -2.52356,18.1887 l -2.25,0.31955 0,43.19332 0,43.19332 2.19663,0.98713 c 1.64179,0.73779 2.53578,2.53195 3.53935,7.1031 2.17692,9.91572 11.11298,18.29603 19.57976,18.36207 3.89832,0.0304 6.68426,1.72139 6.68426,4.05714 0,1.92334 0.92945,1.96482 44.02475,1.96482 l 44.02475,0 0.89865,-2.36362 c 0.49425,-1.29998 1.64492,-2.64998 2.55703,-3 2.77425,-1.06457 33.46943,-0.72034 35.56056,0.3988 1.86503,0.99814 1.93426,2.53269 1.93426,42.87756 0,34.36862 -0.24664,42.04707 -1.38085,42.98837 -0.95294,0.79087 -6.91831,1.06124 -19.25,0.87245 -17.44793,-0.26711 -17.89242,-0.3266 -18.85628,-2.52356 l -0.98713,-2.25 -44.02574,0 -44.02574,0 -0.98713,2.25 c -0.81849,1.86561 -1.84132,2.27649 -5.98713,2.40503 -2.75,0.0853 -7.29831,-0.23929 -10.10736,-0.72125 z m 8.60736,-42.80382 0,-35.87004 -4.51117,-1.26305 c -10.2723,-2.87606 -21.48883,-14.94349 -21.48883,-23.11899 0,-1.80332 -1.46833,-1.87788 -36.98087,-1.87788 l -36.98087,0 0.59332,4.75 c 0.87892,7.03644 5.9866,21.84532 10.08852,29.25 13.96107,25.20219 38.26371,47.3211 63.54404,57.83427 6.88543,2.8634 18.64048,5.90864 23.48586,6.0842 l 2.25,0.0815 0,-35.87004 z m 129,-0.12996 0,-36 -12,0 -12,0 0,36 0,36 12,0 12,0 0,-36 z m -32.23555,0.25 -0.26445,-30.75 -44,0 -44,0 -0.26445,30.75 -0.26445,30.75 44.5289,0 44.5289,0 -0.26445,-30.75 z m -128.76445,-113.75 0,-43.5 -31,0 -31,0 0,43.5 0,43.5 31,0 31,0 0,-43.5 z m 5,-63 0,-11.5 -36.5,0 -36.5,0 0,11.5 0,11.5 36.5,0 36.5,0 0,-11.5 z"
       style="fill:#070707" />
  </g>
</svg>
