<?xml version="1.0" encoding="UTF-8" standalone="no"?>
<svg
   xmlns:dc="http://purl.org/dc/elements/1.1/"
   xmlns:cc="http://creativecommons.org/ns#"
   xmlns:rdf="http://www.w3.org/1999/02/22-rdf-syntax-ns#"
   xmlns:svg="http://www.w3.org/2000/svg"
   xmlns="http://www.w3.org/2000/svg"
   version="1.1"
   id="svg2"
   viewBox="0 0 231 242"
   height="242"
   width="231">
  <defs
     id="defs4" />
  <metadata
     id="metadata7">
    <rdf:RDF>
      <cc:Work
         rdf:about="">
        <dc:format>image/svg+xml</dc:format>
        <dc:type
           rdf:resource="http://purl.org/dc/dcmitype/StillImage" />
        <dc:title></dc:title>
      </cc:Work>
    </rdf:RDF>
  </metadata>
  <g
     transform="translate(152.68878,-199.03797)"
     id="layer1">
    <path
       id="path3399"
       d="m -152.68878,320.03797 0,-121 64.494434,0 64.49444,0 28.9705403,29.25 28.9705397,29.25 0.035,37.25 0.035,37.25 -4,0 -4,0 0,-33.98418 0,-33.98418 -27.7499497,-0.26582 -27.7500003,-0.26582 -0.26557,-28.25 -0.26558,-28.25 -57.48442,0 -57.484434,0 0,113 0,113 57.500004,0 57.5,0 0,4 0,4 -61.5,0 -61.500004,0 0,-121 z M 20.311224,254.77904 c 0,-0.14241 -9.45,-9.70089 -20.99999971,-21.24107 l -21.00000029,-20.98214 0,21.24107 0,21.24107 21.00000029,0 c 11.54999971,0 20.99999971,-0.11652 20.99999971,-0.25893 z m -37.7596,138.00893 0.2596,-48.25 47.75,-0.2597 47.75,-0.25969 0,48.50969 0,48.5097 -48.0096,0 -48.00961,0 0.25961,-48.25 z m 87.7596,-0.25 0,-40.5 -18,0 -18,0 0,25.72915 0,25.72915 8.79186,-8.75112 8.79186,-8.75113 2.68814,2.80583 2.68815,2.80582 -13.4752,13.44746 -13.47521,13.44747 -8.07868,-7.98132 c -4.44328,-4.38972 -10.36677,-10.59975 -13.1633097,-13.80007 l -5.08463,-5.81876 2.65883,-2.65884 2.65884,-2.65884 8.4996797,8.45552 8.49967,8.45552 0,-25.25099 0,-25.251 -17.7499997,0.27308 -17.75,0.27307 -0.26134,40.25 -0.26135,40.25 40.0113497,0 40.01134,0 0,-40.5 z m -181.403844,-0.80603 c -1.09791,-0.80281 -1.65318,-2.2477 -1.44113,-3.75 l 0.34497,-2.44397 30.707124,-0.26439 c 29.77977,-0.25641 30.7393,-0.20425 31.77291,1.72708 0.84991,1.58807 0.65603,2.40125 -0.95711,4.01439 -1.93528,1.93528 -3.24935,2.02292 -30.33179,2.02292 -21.716414,0 -28.724814,-0.30414 -30.094974,-1.30603 z m -0.91736,-32.3485 c -1.39186,-1.39186 -0.61218,-5.31076 1.25546,-6.31029 1.22594,-0.6561 14.547264,-1.03518 36.377554,-1.03518 37.11871,0 37.24877,0.0185 36.51495,5.19496 l -0.32676,2.30504 -36.5712,0.26214 c -20.11415,0.14417 -36.876654,-0.0433 -37.250004,-0.41667 z m 0.5212,-32.54547 c -0.66,-0.66 -1.2,-1.92 -1.2,-2.8 0,-3.95079 0.65818,-4 53.500004,-4 38.41111,0 51.3979803,0.29798 52.3000003,1.2 1.71444,1.71444 1.48244,5.47764 -0.38179,6.19301 -0.86998,0.33385 -24.4049803,0.60699 -52.3000003,0.60699 -38.11416,0 -51.016424,-0.29821 -51.918214,-1.2 z m 0,-32 c -1.59827,-1.59827 -1.52097,-4.28873 0.16339,-5.68663 0.98498,-0.81745 15.765014,-1.05961 53.250004,-0.87244 l 51.8866103,0.25907 0.32676,2.30504 c 0.75367,5.31649 1.99942,5.19496 -53.2492003,5.19496 -38.47144,0 -51.475494,-0.29793 -52.377564,-1.2 z m 0.55,-31.8801 c -2.34952,-1.36847 -2.23656,-5.58913 0.18426,-6.88472 1.14899,-0.61492 10.08052,-1.03518 22.000004,-1.03518 18.65568,0 20.20469,0.13895 22.04306,1.97732 2.18403,2.18403 1.78227,4.54579 -1.02923,6.05046 -2.44016,1.30594 -40.935774,1.2098 -43.198094,-0.10788 z"
       style="fill:#060606" />
  </g>
</svg>
