<?xml version="1.0" encoding="UTF-8" standalone="no"?>
<svg
   xmlns:dc="http://purl.org/dc/elements/1.1/"
   xmlns:cc="http://creativecommons.org/ns#"
   xmlns:rdf="http://www.w3.org/1999/02/22-rdf-syntax-ns#"
   xmlns:svg="http://www.w3.org/2000/svg"
   xmlns="http://www.w3.org/2000/svg"
   version="1.1"
   id="svg2"
   viewBox="0 0 244.69484 216.99995"
   height="216.99995"
   width="244.69484">
  <defs
     id="defs4" />
  <metadata
     id="metadata7">
    <rdf:RDF>
      <cc:Work
         rdf:about="">
        <dc:format>image/svg+xml</dc:format>
        <dc:type
           rdf:resource="http://purl.org/dc/dcmitype/StillImage" />
        <dc:title></dc:title>
      </cc:Work>
    </rdf:RDF>
  </metadata>
  <g
     transform="translate(-539.63305,-658.60942)"
     id="layer1">
    <path
       id="path3412"
       d="m 693.48926,873.67518 c -2.38889,-4.4637 0.0835,-8.0658 5.53625,-8.0658 l 3.42857,0 0,-34.49996 0,-34.5 -14.5,0 -14.5,0 0,4.84501 c 0,3.57502 -0.52425,5.31945 -2,6.65499 -1.93001,1.74663 -2.06999,1.74663 -4,0 -1.94311,-1.75849 -2,-3.07997 -2,-46.45499 0,-46.4245 0.0549,-47.04501 4.16482,-47.04501 2.37879,0 3.83518,3.013 3.83518,7.93426 l 0,4.06574 37.3185,0 c 44.04495,0 44.95508,0.14315 53.17558,8.36365 3.42138,3.42137 6.02003,7.23873 7.60213,11.16734 l 2.40379,5.96901 0.28156,56.75 0.28155,56.74996 3.39702,0 c 5.42276,0 7.88809,3.6124 5.50469,8.0658 -0.99934,1.8673 -2.55634,1.9342 -44.96482,1.9342 -42.40848,0 -43.96548,-0.067 -44.96482,-1.9342 z m 72.74663,-64.31576 c -0.27783,-55.45552 -0.3123,-56.3065 -2.44023,-60.25 -2.75453,-5.10473 -6.84341,-8.97694 -11.55946,-10.94695 -3.13709,-1.31044 -9.58096,-1.55305 -41.25,-1.55305 l -37.53212,0 0,25 0,25 16.92857,0 c 14.05628,0 17.1952,0.26663 18.5,1.57143 1.37333,1.37333 1.57143,6.35281 1.57143,39.5 l 0,37.92853 28.03181,0 28.03181,0 -0.28181,-56.24996 z m -120.11514,-1.41667 c -0.36667,-0.36666 -0.66667,-3.04357 -0.66667,-5.94869 l 0,-5.28202 -32.25,-0.30131 -32.25,-0.30131 -7.78033,-3.71511 c -8.72053,-4.16407 -17.02949,-11.67639 -20.86026,-18.86026 l -2.35941,-4.42463 -0.28515,-50.25 -0.28516,-50.25 -3.98628,0 c -3.28162,0 -4.18765,-0.44193 -5.12536,-2.5 -0.85211,-1.87016 -0.85211,-3.12984 0,-5 l 1.13907,-2.5 40.82144,0 c 30.41668,0 41.1273,0.30586 42.02144,1.2 1.54692,1.54692 1.54692,6.05308 0,7.6 -0.66,0.66 -2.685,1.2 -4.5,1.2 l -3.3,0 0,29 0,29 14.5,0 14.5,0 0,-4.41821 c 0,-5.96846 0.7728,-7.58179 3.63174,-7.58179 1.67518,0 2.7173,0.78784 3.39301,2.5651 0.5773,1.5184 0.97525,19.65024 0.97525,44.4349 0,24.78466 -0.39795,42.9165 -0.97525,44.4349 -0.93955,2.47121 -4.67111,3.5854 -6.35808,1.89843 z m -0.66667,-46.33333 0,-25 -17.3,0 c -12.12222,0 -17.65915,-0.35915 -18.5,-1.2 -0.88455,-0.88455 -1.2,-9.82222 -1.2,-34 l 0,-32.8 -25.52723,0 -25.52722,0 0.27722,49.40254 0.27723,49.40254 3.08697,4.26049 c 3.84683,5.30921 9.24177,9.26712 16.95207,12.43659 5.8774,2.41602 6.392,2.4507 36.71096,2.4741 l 30.75,0.0237 0,-25 z"
       style="fill:#050505" />
  </g>
</svg>
