<?xml version="1.0" encoding="UTF-8" standalone="no"?>
<svg
   xmlns:dc="http://purl.org/dc/elements/1.1/"
   xmlns:cc="http://creativecommons.org/ns#"
   xmlns:rdf="http://www.w3.org/1999/02/22-rdf-syntax-ns#"
   xmlns:svg="http://www.w3.org/2000/svg"
   xmlns="http://www.w3.org/2000/svg"
   version="1.1"
   id="svg2"
   viewBox="0 0 247.14817 246.9394"
   height="246.93939"
   width="247.14816">
  <defs
     id="defs4" />
  <metadata
     id="metadata7">
    <rdf:RDF>
      <cc:Work
         rdf:about="">
        <dc:format>image/svg+xml</dc:format>
        <dc:type
           rdf:resource="http://purl.org/dc/dcmitype/StillImage" />
        <dc:title></dc:title>
      </cc:Work>
    </rdf:RDF>
  </metadata>
  <g
     transform="translate(-67.329382,-518.07881)"
     id="layer1">
    <path
       id="path3373"
       d="m 80.438639,763.08401 c -0.68532,-1.2806 -1.03518,-25.6143 -1.03518,-72.00002 l 0,-70.06574 -4.8,0 c -2.64,0 -5.34,-0.54 -6,-1.2 -1.69877,-1.69877 -1.69877,-42.90123 0,-44.6 0.86489,-0.86489 7.72843,-1.2 24.57792,-1.2 l 23.377931,0 -3.5443,-4.14071 c -12.70799,-14.84643 -7.07844,-39.61271 11.01662,-48.4658 15.64951,-7.65659 35.40161,-1.88879 51.06129,14.9104 5.65718,6.06884 14.31054,19.10678 14.31054,21.56157 0,2.62068 2.08849,1.85851 3.38048,-1.23366 4.36852,-10.45534 16.08994,-24.30688 26.07799,-30.81713 21.13042,-13.77286 44.88506,-8.59601 54.23118,11.81862 4.67421,10.20981 2.85094,23.87033 -4.3012,32.226 l -3.5443,4.14071 23.37793,0 c 16.84949,0 23.71303,0.33511 24.57792,1.2 1.69877,1.69877 1.69877,42.90123 0,44.6 -0.66,0.66 -3.36,1.2 -6,1.2 l -4.8,0 0,70.06574 c 0,46.38572 -0.34986,70.71942 -1.03518,72.00002 -1.01378,1.8942 -3.29841,1.9342 -110.46482,1.9342 -107.166411,0 -109.451041,-0.04 -110.464821,-1.9342 z m 77.964821,-74.07855 0,-68.0128 -35.25,0.2628 -35.250001,0.26279 -0.25699,67.75 -0.25699,67.74996 35.506991,0 35.50699,0 0,-68.01275 z m 57,-19.48721 0,-87.5 -24.5,0 -24.5,0 0,87.5 0,87.49996 24.5,0 24.5,0 0,-87.49996 z m 78.75699,19.75 -0.25699,-67.75 -35.25,-0.26279 -35.25,-0.2628 0,68.0128 0,68.01275 35.50699,0 35.50699,0 -0.25699,-67.74996 z m -135.75699,-91.75 0,-15.5 -41.5,0 -41.500001,0 0,15.5 0,15.5 41.500001,0 41.5,0 0,-15.5 z m 148,0 0,-15.5 -41.5,0 -41.5,0 0,15.5 0,15.5 41.5,0 41.5,0 0,-15.5 z m -120.43329,-26.25 c -0.35756,-1.5125 -2.41982,-6.48171 -4.58281,-11.04269 -9.68764,-20.42782 -24.59108,-32.8023 -40.91254,-33.97009 -7.50603,-0.53706 -12.97369,1.25053 -18.74345,6.12795 -10.27242,8.6837 -10.01023,26.95333 0.51188,35.66911 6.34688,5.25731 10.01831,5.8193 38.51862,5.89607 l 25.85841,0.0697 -0.65011,-2.75 z m 65.00179,1.27872 c 10.29806,-3.07235 16.6315,-11.65151 16.6315,-22.52872 0,-10.30622 -5.10681,-17.83124 -15.12041,-22.28034 -9.17922,-4.07837 -24.54633,-0.22368 -34.83402,8.7378 -8.47511,7.38254 -19.48361,24.9421 -21.81228,34.79254 l -0.65011,2.75 25.42691,0 c 19.47984,0 26.58033,-0.34412 30.35841,-1.47128 z"
       style="fill:#060606" />
  </g>
</svg>
