<?xml version="1.0" encoding="UTF-8" standalone="no"?>
<svg
   xmlns:dc="http://purl.org/dc/elements/1.1/"
   xmlns:cc="http://creativecommons.org/ns#"
   xmlns:rdf="http://www.w3.org/1999/02/22-rdf-syntax-ns#"
   xmlns:svg="http://www.w3.org/2000/svg"
   xmlns="http://www.w3.org/2000/svg"
   version="1.1"
   id="svg2"
   viewBox="0 0 245.96451 245.69009"
   height="245.69009"
   width="245.96451">
  <defs
     id="defs4" />
  <metadata
     id="metadata7">
    <rdf:RDF>
      <cc:Work
         rdf:about="">
        <dc:format>image/svg+xml</dc:format>
        <dc:type
           rdf:resource="http://purl.org/dc/dcmitype/StillImage" />
        <dc:title></dc:title>
      </cc:Work>
    </rdf:RDF>
  </metadata>
  <g
     transform="translate(571.35898,-206.10413)"
     id="layer1">
    <path
       id="path3425"
       d="m -460.93841,451.36921 c -0.825,-0.16164 -4.875,-0.83665 -9,-1.50003 -42.37635,-6.81491 -80.47669,-38.95708 -94.7988,-79.97408 -5.15088,-14.75158 -6.62177,-23.85888 -6.62177,-41 0,-17.14112 1.47089,-26.24842 6.62177,-41 10.1012,-28.92876 32.36866,-54.22035 60.27336,-68.45905 16.44774,-8.39265 32.16966,-12.42683 51.52544,-13.2212 34.92274,-1.43326 66.69663,11.07378 91.59309,36.05343 18.23006,18.29099 28.71875,37.57323 34.06622,62.62682 2.51283,11.77289 2.51283,36.22711 0,48 -5.34747,25.05359 -15.83616,44.33583 -34.06622,62.62682 -19.20941,19.2736 -42.11365,30.93749 -68.58893,34.92864 -8.26255,1.24558 -26.56727,1.78795 -31.00416,0.91865 z m 30.97253,-9.01835 c 36.89844,-5.98395 68.64233,-29.48303 85.04422,-62.95576 21.86615,-44.62411 13.21735,-96.44859 -21.95318,-131.54569 -17.49723,-17.4607 -38.98977,-28.50148 -63.09104,-32.41007 -49.84451,-8.08347 -99.54208,17.58816 -122.38469,63.21867 -6.76641,13.51659 -11.57605,34.38922 -11.57605,50.23709 0,62.65436 51.43596,114.27238 114.48821,114.89346 5.5,0.0542 14.26264,-0.59279 19.47253,-1.4377 z M -548.73841,366.6951 c -2.86521,-2.86522 -0.26371,-5.70857 7.55,-8.25189 2.8875,-0.93986 5.25,-2.09475 5.25,-2.56642 0,-0.47167 -0.64205,-3.69801 -1.42677,-7.16964 -3.63048,-16.06138 -2.77097,-32.40351 2.54097,-48.31205 7.78589,-23.31769 24.20322,-42.06829 46.3858,-52.97826 13.8219,-6.79797 23.20553,-8.88979 40,-8.91689 15.95946,-0.0258 25.22932,1.89938 38.36148,7.96682 12.65219,5.84567 16.65071,10.09851 12.6311,13.43449 -1.24615,1.03421 -3.45596,0.28698 -12.75,-4.31134 -15.07626,-7.45912 -21.99529,-9.10846 -38.24258,-9.11618 -13.73002,-0.007 -20.12582,1.17114 -31.65779,5.8291 -18.36771,7.41905 -35.75673,24.09985 -43.94221,42.15253 -7.86995,17.3568 -9.66121,37.75793 -4.87567,55.53008 l 0.9836,3.65283 21.0309,-7.66483 21.03089,-7.66482 0.24471,-9.95676 c 0.22021,-8.96011 0.56033,-10.56619 3.39783,-16.04491 3.96474,-7.65524 12.47916,-15.59526 19.54108,-18.22278 11.44676,-4.259 21.34963,-3.65277 32.55775,1.99308 l 6.31109,3.17908 22.19707,-22.18062 c 12.20838,-12.19934 22.96506,-22.18062 23.90372,-22.18062 2.3575,0 4.11602,3.51623 2.87566,5.75 -0.53446,0.9625 -10.64802,11.39383 -22.47459,23.18073 l -21.50285,21.43073 2.02249,2.84032 c 3.89306,5.4673 5.99119,13.50326 5.76452,22.07843 l -0.21122,7.99041 20.35402,7.39397 c 11.19471,4.06668 20.90003,7.18444 21.56739,6.92835 2.16503,-0.8308 3.81958,-11.7494 3.7267,-24.59294 -0.10857,-15.01413 -2.82691,-25.61683 -9.95937,-38.84589 -5.01013,-9.29264 -5.32424,-12.48718 -1.27402,-12.95719 2.16723,-0.25149 3.13942,0.51933 5.71269,4.52942 11.34067,17.6729 16.36893,42.00115 12.76762,61.77366 -0.90158,4.95 -1.88785,10.14219 -2.19171,11.53821 -0.51339,2.35863 -0.0898,2.70153 5.98695,4.84682 4.32552,1.52703 6.74909,2.96918 7.15871,4.25978 0.7519,2.36903 -1.11489,4.85519 -3.64564,4.85519 -3.46275,0 -66.37634,-23.24841 -68.07531,-25.15581 -1.31773,-1.4794 -1.4777,-2.56841 -0.75,-5.10574 1.41083,-4.91926 1.10521,-13.85324 -0.65011,-19.00484 -2.16905,-6.3658 -8.37527,-13.07298 -15.17481,-16.39968 -11.77945,-5.76315 -26.30928,-2.75389 -35.13943,7.27769 -2.17825,2.47463 -4.66925,6.57952 -5.53556,9.12199 -1.84192,5.40573 -2.05478,14.59193 -0.44512,19.20941 0.97067,2.78445 0.86493,3.48904 -0.75,4.99745 -1.98103,1.85037 -65.14776,25.05953 -68.20275,25.05953 -0.97748,0 -2.31723,-0.54 -2.97723,-1.2 z m 92.3,-20.16317 c -6.25637,-2.90559 -11.52325,-11.09849 -11.47804,-17.85471 0.0514,-7.6786 7.44752,-17.02917 14.51913,-18.35581 8.86151,-1.66243 16.75924,1.41992 21.54909,8.41024 1.95196,2.84871 2.40982,4.77974 2.40982,10.16345 0,7.57958 -2.23219,11.9074 -8.27841,16.05033 -4.23523,2.90203 -14.09066,3.73719 -18.72159,1.5865 z m 15.73422,-9.5548 c 2.8894,-2.58168 3.26578,-3.51313 3.26578,-8.08203 0,-4.5689 -0.37638,-5.50035 -3.26578,-8.08203 -2.57569,-2.30138 -4.20999,-2.91797 -7.73422,-2.91797 -3.52423,0 -5.15853,0.61659 -7.73422,2.91797 -2.8894,2.58168 -3.26578,3.51313 -3.26578,8.08203 0,4.5689 0.37638,5.50035 3.26578,8.08203 2.57569,2.30138 4.20999,2.91797 7.73422,2.91797 3.52423,0 5.15853,-0.61659 7.73422,-2.91797 z"
       style="fill:#070707" />
  </g>
</svg>
