<?xml version="1.0" encoding="UTF-8" standalone="no"?>
<svg
   xmlns:dc="http://purl.org/dc/elements/1.1/"
   xmlns:cc="http://creativecommons.org/ns#"
   xmlns:rdf="http://www.w3.org/1999/02/22-rdf-syntax-ns#"
   xmlns:svg="http://www.w3.org/2000/svg"
   xmlns="http://www.w3.org/2000/svg"
   version="1.1"
   id="svg2"
   viewBox="0 0 214 250"
   height="250"
   width="214">
  <defs
     id="defs4" />
  <metadata
     id="metadata7">
    <rdf:RDF>
      <cc:Work
         rdf:about="">
        <dc:format>image/svg+xml</dc:format>
        <dc:type
           rdf:resource="http://purl.org/dc/dcmitype/StillImage" />
        <dc:title></dc:title>
      </cc:Work>
    </rdf:RDF>
  </metadata>
  <g
     transform="translate(225.93041,-269.65134)"
     id="layer1">
    <path
       id="path3438"
       d="m -134.26659,517.40138 c -5.15187,-8.38593 -6.66423,-12.2681 -6.67169,-17.12595 l -0.008,-5.12405 -8.34782,-7.68601 c -11.52819,-10.61436 -11.63631,-10.91304 -11.63631,-32.14557 0,-17.4172 0.0144,-17.53136 2.25,-17.84887 2.1163,-0.30056 2.26802,-0.85435 2.5533,-9.31955 0.16681,-4.95 0.0293,-10.48715 -0.30559,-12.30478 -0.58636,-3.18249 -0.7641,-3.2935 -4.8033,-3 -3.72824,0.27091 -4.22919,0.60643 -4.50737,3.01886 -0.175,1.51768 -1.64146,3.83194 -3.32672,5.25 -2.76191,2.324 -3.80542,2.53592 -12.48671,2.53592 -11.1818,0 -15.12054,-1.48464 -16.03222,-6.04306 l -0.59139,-2.95694 -8.375,0 -8.375,0 0,-20.45956 0,-20.45956 8.25,-0.29044 c 8.14707,-0.28682 8.2539,-0.3243 8.56296,-3.00452 0.175,-1.51768 1.64146,-3.83194 3.32672,-5.25 2.75044,-2.31435 3.81528,-2.53463 12.18704,-2.52118 10.50557,0.0169 13.53474,1.12204 15.67328,5.71818 1.33102,2.86063 1.96429,3.22623 5.62155,3.24544 l 4.12155,0.0216 0.44748,-10.86069 c 0.36394,-8.83334 0.85459,-11.5507 2.62845,-14.55716 1.78072,-3.0181 2.18097,-5.25774 2.18097,-12.20387 0,-8.22504 0.0996,-8.59118 3,-11.03173 l 3,-2.52434 0,-25.4111 0,-25.41111 27,0 26.999997,0 0,24.81291 0,24.81291 3,2.87418 c 2.891,2.76976 3,3.19585 3,11.72758 0,7.61407 0.31497,9.27888 2.25,11.89285 1.96374,2.65275 2.29275,4.49237 2.58605,14.45951 l 0.33606,11.42006 4.16394,-0.0216 c 3.70505,-0.0193 4.32926,-0.37694 5.66395,-3.24544 2.13853,-4.59614 5.16771,-5.7013 15.67327,-5.71818 8.37177,-0.0134 9.43661,0.20683 12.18705,2.52118 1.68526,1.41806 3.15172,3.73232 3.32672,5.25 0.30906,2.68022 0.41589,2.7177 8.56296,3.00452 l 8.25,0.29044 0,20.45956 0,20.45956 -8.5,0 c -7.41646,0 -8.50405,0.22308 -8.5318,1.75 -0.0404,2.22253 -1.85526,4.59686 -4.65246,6.08666 -1.21904,0.64922 -6.37742,1.1633 -11.67327,1.1633 -8.69851,0 -9.74009,-0.21126 -12.50279,-2.53592 -1.68526,-1.41806 -3.15172,-3.73232 -3.32672,-5.25 -0.28223,-2.4476 -0.7057,-2.71408 -4.31296,-2.71408 l -4,0 -0.64509,5 c -0.35481,2.75 -0.40127,8.2625 -0.10327,12.25 0.46314,6.19708 0.81098,7.25 2.3951,7.25 1.7359,0 1.85326,1.14304 1.85326,18.04966 0,13.7115 -0.34318,18.69868 -1.42788,20.75 -0.78533,1.48519 -5.28533,6.51541 -10,11.17826 -8.44426,8.35147 -8.57212,8.55105 -8.57212,13.38039 0,3.75482 -0.86859,6.5106 -3.710437,11.77208 l -3.71043,6.86961 -14.26651,0 c -13.71867,0 -14.31959,-0.0864 -15.6488,-2.25 z m 26.33618,-6.75 c 1.04289,-1.94865 0.76049,-2 -11,-2 -11.76049,0 -12.04289,0.0514 -11,2 0.96004,1.79386 2.09382,2 11,2 8.90618,0 10.03996,-0.20614 11,-2 z m 3.80544,-13.70796 c 0.27983,-3.855 1.13958,-5.03396 10.249997,-14.05569 l 9.94456,-9.84773 0,-14.19431 0,-14.19431 -34.499997,0 -34.5,0 0,14.57377 0,14.57376 9.5,9.22611 c 8.90487,8.64814 9.5,9.47879 9.5,13.25957 0,2.2184 0.31183,4.34528 0.69295,4.7264 0.38112,0.38112 7.01862,0.56862 14.75,0.41667 l 14.05705,-0.27628 0.30544,-4.20796 z m -42.36532,-31.74308 c -2.99732,-4.57449 1.23683,-9.92844 6.09964,-7.7128 3.13609,1.4289 3.99323,4.70145 2.02012,7.7128 -2.11732,3.23143 -6.00244,3.23143 -8.11976,0 z m 22.21487,0.6223 c -2.38992,-2.64083 -2.03797,-5.87422 0.84501,-7.76322 2.31587,-1.51741 2.68413,-1.51741 5,0 4.55777,2.98637 2.6438,9.59196 -2.77927,9.59196 -0.77592,0 -2.1555,-0.82293 -3.06574,-1.82874 z m 22.09501,0.74864 c -2.6994,-1.57226 -2.26182,-6.53844 0.75,-8.51186 2.315867,-1.51741 2.684127,-1.51741 4.999997,0 2.97228,1.94751 3.27922,5.5768 0.67126,7.93697 -2.08037,1.88271 -3.89668,2.04533 -6.421257,0.57489 z m 13.273857,-39.1699 c 0.0264,-11.34892 1.04209,-17.24452 3.37228,-19.57471 0.91925,-0.91925 3.98167,-1.71967 7.57357,-1.97948 l 6.03029,-0.43619 0,-12.75598 0,-12.75598 -5.40788,-0.44846 c -2.97434,-0.24666 -6.57434,-1.21276 -8,-2.14689 -2.53604,-1.66167 -2.59212,-1.94256 -2.59212,-12.98423 0,-7.47765 -0.42179,-11.84532 -1.25,-12.94395 -1.12054,-1.4864 -4.25357,-1.63566 -30.249997,-1.44113 l -29,0.217 -0.5,12.22657 c -0.61108,14.94274 -1.37242,16.13415 -10.8599,16.99444 l -6.1401,0.55677 0,12.86111 0,12.86111 5.44424,0 c 4.31257,0 6.02745,0.50148 8.25,2.41255 2.78006,2.39046 2.80895,2.53701 3.15387,16 l 0.34812,13.58745 29.90188,0 29.901887,0 0.0239,-10.25 z m -84.023857,-14.25 c 0,-2.48148 -0.0667,-2.5 -9,-2.5 -8.93333,0 -9,0.0185 -9,2.5 0,2.48148 0.0667,2.5 9,2.5 8.93333,0 9,-0.0185 9,-2.5 z m 125.999997,0 c 0,-2.48148 -0.0667,-2.5 -9,-2.5 -8.93333,0 -9,0.0185 -9,2.5 0,2.48148 0.0667,2.5 9,2.5 8.93333,0 9,-0.0185 9,-2.5 z m -151.499997,-19 0,-13 -4.75,-0.30479 -4.75,-0.30479 0,12.88812 c 0,7.08847 0.32117,13.2093 0.71372,13.60185 0.39255,0.39254 2.53005,0.58004 4.75,0.41666 l 4.03628,-0.29705 0,-13 z m 168.279417,-0.30599 0.27941,-13.306 -4.77941,0.306 -4.77942,0.30599 -0.28339,11.94178 c -0.15587,6.56798 -0.0475,12.55656 0.24085,13.30795 0.35759,0.93187 1.87819,1.26827 4.78339,1.05821 l 4.25915,-0.30794 0.27942,-13.30599 z m -142.779417,6.80599 0,-3 -9,0 c -8.76191,0 -9,0.0617 -9,2.33333 0,1.28334 0.3,2.63334 0.66667,3 0.36666,0.36667 4.41666,0.66667 9,0.66667 l 8.33333,0 0,-3 z m 125.816417,-0.25 0.31642,-2.75 -9.06642,0 c -8.83149,0 -9.06642,0.0605 -9.06642,2.33333 0,1.28334 0.31672,2.65005 0.70382,3.03715 0.38709,0.3871 4.32459,0.5746 8.75,0.41667 7.95327,-0.28383 8.04983,-0.3189 8.3626,-3.03715 z m -125.816417,-13.28893 0,-3.53894 -8.73875,0.28894 c -7.50325,0.24808 -8.78764,0.54461 -9.08457,2.09734 -0.78437,4.10168 0.38398,4.69159 9.29193,4.69159 l 8.53139,0 0,-3.53893 z m 125.499997,0.0389 0,-3 -8.4863,0 c -7.39157,0 -8.53124,0.23329 -8.83458,1.80841 -0.81033,4.2077 0.36201,4.78801 9.05511,4.48229 l 8.26577,-0.29067 0,-3 z m -125.499997,-13.49997 0,-3 -9,0 -9,0 0,3 0,3 9,0 9,0 0,-3 z m 125.999997,0 0,-3 -9,0 -9,0 0,3 0,3 9,0 9,0 0,-3 z m -46,-37 0,-6 -25.999997,0 -26,0 0,6 0,6 26,0 25.999997,0 0,-6 z m -6,-36.5 0,-23.5 -19.999997,0 -20,0 0,23.5 0,23.5 20,0 19.999997,0 0,-23.5 z m -126.999997,93.5 0,-17 3.5,0 3.5,0 0,17 0,17 -3.5,0 -3.5,0 0,-17 z m 206.999997,0 0,-17 3.5,0 3.5,0 0,17 0,17 -3.5,0 -3.5,0 0,-17 z"
       style="fill:#060606" />
  </g>
</svg>
