<?xml version="1.0" encoding="UTF-8" standalone="no"?>
<svg
   xmlns:dc="http://purl.org/dc/elements/1.1/"
   xmlns:cc="http://creativecommons.org/ns#"
   xmlns:rdf="http://www.w3.org/1999/02/22-rdf-syntax-ns#"
   xmlns:svg="http://www.w3.org/2000/svg"
   xmlns="http://www.w3.org/2000/svg"
   version="1.1"
   id="svg2"
   viewBox="0 0 184.17647 244.81891"
   height="244.81891"
   width="184.17647">
  <defs
     id="defs4" />
  <metadata
     id="metadata7">
    <rdf:RDF>
      <cc:Work
         rdf:about="">
        <dc:format>image/svg+xml</dc:format>
        <dc:type
           rdf:resource="http://purl.org/dc/dcmitype/StillImage" />
        <dc:title></dc:title>
      </cc:Work>
    </rdf:RDF>
  </metadata>
  <g
     transform="translate(-373.51899,-253.93142)"
     id="layer1">
    <path
       id="path3451"
       d="m 384.99816,496.90416 c -4.84098,-2.23426 -7.8876,-5.40003 -9.95227,-10.34149 -1.33677,-3.19934 -1.54474,-11.51191 -1.52577,-60.98635 0.0205,-53.55253 0.14216,-57.54256 1.86808,-61.28212 1.01537,-2.2 2.92413,-4.99102 4.24169,-6.20227 2.96019,-2.72134 8.9595,-5.29773 12.33615,-5.29773 l 2.53212,0 0.007,-16.75 c 0.006,-13.37163 0.4168,-18.45949 2.03877,-25.22568 7.64929,-31.90962 34.14053,-54.88319 65.44011,-56.75055 12.45319,-0.74297 23.29392,1.52065 35.48229,7.40895 8.08097,3.90398 10.79934,5.91057 18.55383,13.69571 7.72388,7.7544 9.82701,10.6204 14.03183,19.12157 4.39527,8.88624 4.94616,10.72395 4.94616,16.5 0,5.20459 -0.46412,7.15071 -2.32884,9.76509 -4.87404,6.83353 -14.26601,8.52018 -21.09426,3.78821 -2.0741,-1.43736 -4.24879,-3.61236 -4.83265,-4.83334 -0.58385,-1.22098 -2.43081,-5.2613 -4.10435,-8.97849 -13.98316,-31.05877 -55.8651,-32.84018 -71.38289,-3.03621 -4.71175,9.04953 -5.757,14.7404 -5.757,31.34396 l 0,13.95078 58.25,0.022 c 54.49355,0.0205 58.50795,0.14102 62.25,1.86808 4.84098,2.23426 7.8876,5.40003 9.95227,10.34149 2.3267,5.56857 2.3267,115.96837 0,121.53694 -2.06467,4.94146 -5.11129,8.10723 -9.95227,10.34149 -3.77848,1.74388 -8.23666,1.84612 -80.5,1.84612 -72.26334,0 -76.72152,-0.10224 -80.5,-1.84612 z m 93.05887,-38.52938 c 1.91633,-1.40128 1.9116,-1.56142 -0.37009,-12.53289 l -2.31122,-11.11347 2.43652,-2.89564 c 6.80581,-8.08824 2.55253,-21.61729 -7.87832,-25.05978 -13.99086,-4.6174 -25.85573,12.44712 -17.15593,24.67435 l 2.44015,3.42953 -1.82057,8.70866 c -2.16446,10.35359 -2.30649,13.40158 -0.69941,15.00866 1.8076,1.8076 22.83563,1.62566 25.35887,-0.21942 z"
       style="fill:#000000" />
  </g>
</svg>
