<?xml version="1.0" encoding="UTF-8" standalone="no"?>
<svg
   xmlns:dc="http://purl.org/dc/elements/1.1/"
   xmlns:cc="http://creativecommons.org/ns#"
   xmlns:rdf="http://www.w3.org/1999/02/22-rdf-syntax-ns#"
   xmlns:svg="http://www.w3.org/2000/svg"
   xmlns="http://www.w3.org/2000/svg"
   version="1.1"
   id="svg2"
   viewBox="0 0 244.21432 244.32251"
   height="244.32251"
   width="244.21432">
  <defs
     id="defs4" />
  <metadata
     id="metadata7">
    <rdf:RDF>
      <cc:Work
         rdf:about="">
        <dc:format>image/svg+xml</dc:format>
        <dc:type
           rdf:resource="http://purl.org/dc/dcmitype/StillImage" />
        <dc:title></dc:title>
      </cc:Work>
    </rdf:RDF>
  </metadata>
  <g
     transform="translate(-80.470967,-106.19834)"
     id="layer1">
    <path
       id="path3477"
       d="m 189.8047,350.08161 c -0.825,-0.16164 -4.875,-0.84013 -9,-1.50775 -36.0156,-5.82909 -69.70765,-30.63298 -86.946273,-64.00935 -10.172733,-19.69582 -13.38746,-33.25283 -13.38746,-56.45701 0,-12.29338 0.462785,-19.0315 1.671548,-24.33763 11.217915,-49.24348 46.581075,-84.60664 95.824555,-95.82456 10.22496,-2.32929 38.4503,-2.32929 48.67526,0 24.32759,5.54195 45.53433,17.02287 62.16801,33.65655 36.89829,36.89829 46.42744,93.81281 23.47636,140.21667 -8.70448,17.59924 -23.13894,34.90364 -37.482,44.93439 -8.08273,5.65261 -9.25085,6.06761 -11.8852,4.22244 -4.09971,-2.87155 -2.73827,-5.82806 5.48375,-11.90852 23.21658,-17.16948 38.26399,-40.78817 44.57091,-69.95934 0.76161,-3.52266 1.28166,-12.39979 1.25953,-21.5 -0.0303,-12.46018 -0.46263,-17.20767 -2.20447,-24.20739 -10.65554,-42.8202 -40.46768,-73.13728 -83.15075,-84.55913 -8.49526,-2.2733 -11.48887,-2.56191 -26.57377,-2.56191 -15.0849,0 -18.07851,0.28861 -26.57377,2.56191 -36.50662,9.76905 -65.0948,34.72221 -77.973527,68.05913 -5.854539,15.15462 -7.360852,23.58723 -7.360852,41.20739 0,17.62016 1.506313,26.05277 7.360852,41.2074 15.321877,39.66107 54.083067,68.03727 96.864607,70.91242 5.32548,0.35791 10.24519,1.09496 10.93269,1.6379 1.59068,1.25621 1.62193,5.97035 0.05,7.54228 -1.07014,1.07014 -11.50611,1.51539 -15.8,0.67411 z m -34.54957,-44.82846 c -4.96533,-2.24782 -8.45043,-7.15795 -8.45043,-11.90573 0,-2.2732 2.67873,-12.46161 6,-22.82068 3.3,-10.29274 6,-19.57004 6,-20.61623 0,-1.30538 -5.43174,-5.90198 -17.31306,-14.65112 -9.52219,-7.01193 -18.07219,-14.03405 -19,-15.60472 -3.50926,-5.94071 -1.18601,-14.70567 4.968,-18.74284 2.39459,-1.5709 5.56207,-1.84563 24.48404,-2.12361 23.77647,-0.34928 25.86102,0.0259 25.86102,4.65446 0,4.97653 -0.8388,5.16482 -23.00887,5.16482 -15.68056,0 -21.04854,0.3215 -22.44746,1.34441 -3.75816,2.74804 -1.16467,5.66787 16.12642,18.15559 9.13867,6.6 17.44977,13.35 18.4691,15 2.89169,4.68079 2.29671,8.8494 -4.13919,29 -3.3,10.33221 -6,19.53152 -6,20.44292 0,1.92981 1.87948,4.05708 3.5845,4.05708 0.65147,0 8.77397,-5.474 18.05,-12.16445 9.27602,-6.69044 18.27659,-12.60017 20.00127,-13.13272 5.78752,-1.78709 9.36848,-0.10725 27.29321,12.80336 9.54033,6.8716 17.86918,12.49381 18.50854,12.49381 1.68566,0 3.56248,-2.13739 3.56248,-4.05708 0,-0.9114 -2.7,-10.11071 -6,-20.44292 -6.43589,-20.1506 -7.03088,-24.31921 -4.13919,-29 1.01933,-1.65 9.33043,-8.4 18.4691,-15 17.29109,-12.48772 19.88459,-15.40755 16.12642,-18.15559 -1.40093,-1.02439 -6.81548,-1.34441 -22.74633,-1.34441 -22.39102,0 -25.94761,-0.6538 -29.26845,-5.38036 -0.81908,-1.1658 -4.48677,-11.22824 -8.15041,-22.36098 -6.68537,-20.31482 -7.72443,-22.18083 -11.53654,-20.71799 -0.87488,0.33573 -2.86998,4.822 -4.6711,10.50367 -3.44857,10.87858 -5.36142,13.06132 -9.70999,11.07998 -3.22634,-1.47002 -3.07742,-4.50561 0.79092,-16.12185 4.39046,-13.18413 9.62729,-17.52495 18.73033,-15.52558 6.43077,1.41243 8.29974,4.59206 15.59013,26.52311 3.74807,11.275 7.30978,20.83061 7.91489,21.23469 0.60512,0.40408 10.55022,0.74227 22.10022,0.75155 17.97685,0.0144 21.50099,0.26857 24.48007,1.76531 7.14252,3.58853 10.16733,12.80461 6.33299,19.29562 -0.92781,1.57067 -9.47781,8.59279 -19,15.60472 -11.88132,8.74914 -17.31306,13.34574 -17.31306,14.65112 0,1.04619 2.7,10.32349 6,20.61623 3.36182,10.48555 6,20.53816 6,22.86261 0,7.5306 -8.64425,14.3393 -16.26895,12.81436 -1.69946,-0.33989 -10.88949,-6.23808 -20.42231,-13.1071 -9.53281,-6.86901 -17.99675,-12.48911 -18.80874,-12.48911 -0.81199,0 -9.33883,5.66543 -18.94853,12.58984 -18.6811,13.46095 -21.92396,14.85219 -28.10104,12.05581 z"
       style="fill:#060606" />
  </g>
</svg>
