<?xml version="1.0" encoding="UTF-8" standalone="no"?>
<svg
   xmlns:dc="http://purl.org/dc/elements/1.1/"
   xmlns:cc="http://creativecommons.org/ns#"
   xmlns:rdf="http://www.w3.org/1999/02/22-rdf-syntax-ns#"
   xmlns:svg="http://www.w3.org/2000/svg"
   xmlns="http://www.w3.org/2000/svg"
   version="1.1"
   id="svg2"
   viewBox="0 0 248.01594 248.21312"
   height="248.21312"
   width="248.01595">
  <defs
     id="defs4" />
  <metadata
     id="metadata7">
    <rdf:RDF>
      <cc:Work
         rdf:about="">
        <dc:format>image/svg+xml</dc:format>
        <dc:type
           rdf:resource="http://purl.org/dc/dcmitype/StillImage" />
        <dc:title></dc:title>
      </cc:Work>
    </rdf:RDF>
  </metadata>
  <g
     transform="translate(-131.24867,-284.15572)"
     id="layer1">
    <path
       id="path3490"
       d="m 241.75665,532.0406 c -13.87429,-1.767 -30.9488,-6.80567 -42.07059,-12.41501 -22.85311,-11.52607 -44.36523,-33.03819 -55.8913,-55.8913 -3.94976,-7.83129 -8.48335,-21.07684 -10.63462,-31.07059 -2.54862,-11.83962 -2.54862,-37.16038 0,-49 5.3178,-24.70384 16.75119,-45.85261 34.24754,-63.34897 17.49636,-17.49635 38.64513,-28.92974 63.34897,-34.24754 11.83962,-2.54862 37.16038,-2.54862 49,0 24.70384,5.3178 45.85261,16.75119 63.34897,34.24754 17.49635,17.49636 28.92974,38.64513 34.24754,63.34897 2.54862,11.83962 2.54862,37.16038 0,49 -5.29964,24.61949 -16.71762,45.78826 -34.13054,63.27755 -16.98256,17.05704 -37.58084,28.39182 -61.46597,33.82337 -8.34274,1.89716 -32.28,3.25918 -40,2.27598 z m 40.5,-18.34717 c 20.51855,-5.60235 34.61066,-13.89641 50,-29.42803 21.68289,-21.88336 31.47373,-45.55705 31.47373,-76.1017 0,-30.54465 -9.79084,-54.21834 -31.47373,-76.1017 -15.51923,-15.66272 -29.53837,-23.86802 -50.52205,-29.57023 -7.36976,-2.00269 -10.83081,-2.30542 -26.47795,-2.31595 -19.74921,-0.0133 -26.93621,1.28119 -42.05313,7.57438 -24.94433,10.38434 -47.97602,33.41604 -58.36037,58.36036 -6.28622,15.10017 -7.5865,22.30784 -7.5865,42.05314 0,15.71144 0.29446,19.07791 2.31596,26.47795 5.32947,19.50944 13.90457,34.67785 27.62651,48.86829 16.04987,16.59785 34.91322,26.99687 57.55753,31.7304 10.17805,2.12761 37.27398,1.24519 47.5,-1.54691 z m 9.67884,-36.13394 c -49.29353,-4.38496 -90.75556,-39.99872 -103.10168,-88.55907 -2.51712,-9.90043 -4.14471,-27.50821 -2.94454,-31.85488 1.12801,-4.08529 14.49411,-17.13006 18.44707,-18.00356 1.60617,-0.35493 3.44924,-0.80574 4.09571,-1.00179 2.10207,-0.6375 8.7459,1.66052 12.08383,4.17964 4.34405,3.27844 6.40893,7.69737 9.73995,20.84387 3.41318,13.47078 2.80616,17.12109 -4.0695,24.47173 -2.43633,2.60462 -4.42968,5.31195 -4.42968,6.01627 0,2.75484 9.0349,19.81123 13.31834,25.14284 7.3047,9.09216 19.86839,17.73823 31.88228,21.94073 3.67711,1.28627 3.73194,1.26519 8.63198,-3.31821 7.56633,-7.07743 11.10844,-7.68807 24.6674,-4.25254 6.05,1.53293 12.66143,3.6182 14.69207,4.63393 7.29153,3.64726 11.40911,12.19506 9.66504,20.06395 -0.74942,3.38121 -2.49296,5.85659 -8.15089,11.57213 -4.67514,4.72274 -8.42565,7.61202 -10.70188,8.24442 -1.92739,0.53548 -3.72934,0.91422 -4.00434,0.84165 -0.275,-0.0726 -4.69452,-0.50507 -9.82116,-0.96111 z"
       style="fill:#030303" />
  </g>
</svg>
