<?xml version="1.0" encoding="UTF-8" standalone="no"?>
<svg
   xmlns:dc="http://purl.org/dc/elements/1.1/"
   xmlns:cc="http://creativecommons.org/ns#"
   xmlns:rdf="http://www.w3.org/1999/02/22-rdf-syntax-ns#"
   xmlns:svg="http://www.w3.org/2000/svg"
   xmlns="http://www.w3.org/2000/svg"
   version="1.1"
   id="svg2"
   viewBox="0 0 248.00405 227.19186"
   height="227.19186"
   width="248.00406">
  <defs
     id="defs4" />
  <metadata
     id="metadata7">
    <rdf:RDF>
      <cc:Work
         rdf:about="">
        <dc:format>image/svg+xml</dc:format>
        <dc:type
           rdf:resource="http://purl.org/dc/dcmitype/StillImage" />
        <dc:title></dc:title>
      </cc:Work>
    </rdf:RDF>
  </metadata>
  <g
     transform="translate(547.03703,-275.31981)"
     id="layer1">
    <path
       id="path3503"
       d="m -516.84723,500.48607 c -6.4149,-3.91108 -6.1898,-0.62197 -6.1898,-90.44225 l 0,-81.53212 -8,0 -8,0 0,6 0,6 -4,0 -4,0 0,-28.5 0,-28.5 4,0 4,0 0,6 0,6 8,0 8,0 0,-4.53212 c 0,-6.16884 2.2247,-11.01609 6.1898,-13.4863 2.9545,-1.84064 4.6247,-2.03103 15.5438,-1.7719 l 12.2335,0.29032 3.2172,3.21992 c 2.8302,2.83267 3.2671,4.00528 3.6329,9.75 l 0.4158,6.53008 5.8835,0 5.8835,0 0,-4.53212 c 0,-6.18277 2.2315,-11.02895 6.1898,-13.44225 2.7942,-1.70356 5.0249,-2.01644 14.3102,-2.00715 6.7936,0.007 11.9445,0.48894 13.47,1.26083 4.2918,2.17167 7.03,7.3788 7.03,13.36857 l 0,5.35212 6,0 6,0 0,-5.04966 c 0,-6.16297 2.0563,-10.4042 6.2985,-12.99082 4.7583,-2.90128 23.7167,-2.85732 28.5117,0.0661 3.9583,2.41329 6.1898,7.25947 6.1898,13.44224 l 0,4.53212 5.8835,0 5.88351,0 0.4158,-6.53008 c 0.3658,-5.74472 0.80272,-6.91733 3.63292,-9.75 l 3.21712,-3.21992 12.23358,-0.29032 c 10.91909,-0.25913 12.58924,-0.0687 15.54375,1.7719 3.96507,2.47021 6.18982,7.31746 6.18982,13.4863 l 0,4.53212 8.06574,0 c 12.3308,0 11.93426,-0.54824 11.93426,16.5 0,17.04824 0.39654,16.5 -11.93426,16.5 l -8.06574,0 0,60.5 0,60.5 10.06574,0 c 14.56827,0 13.93426,-0.74325 13.93426,16.33518 0,9.76153 -0.37883,14.64365 -1.2,15.46482 -0.78519,0.78519 -4.93333,1.2 -12,1.2 l -10.8,0 0,4.53212 c 0,6.16884 -2.22475,11.01609 -6.18982,13.4863 -2.95451,1.84064 -4.62466,2.03103 -15.54375,1.7719 l -12.23358,-0.29032 -3.21712,-3.21992 c -2.8302,-2.83267 -3.26712,-4.00528 -3.63292,-9.75 l -0.4158,-6.53008 -5.88351,0 -5.8835,0 0,5.35212 c 0,3.91528 -0.6121,6.2604 -2.28,8.73543 -3.6277,5.38308 -5.7408,6.00117 -19.4536,5.69003 l -12.2336,-0.27758 -3.2171,-3.21992 c -2.8302,-2.83267 -3.2671,-4.00528 -3.6329,-9.75 l -0.4158,-6.53008 -5.767,0 -5.767,0 -0.4158,6.53008 c -0.3658,5.74472 -0.8027,6.91733 -3.6329,9.75 l -3.2172,3.21992 -12.2335,0.27758 c -8.4857,0.19254 -12.97,-0.11382 -14.6372,-1 -4.2448,-2.25621 -6.4347,-6.30623 -6.9018,-12.76414 l -0.435,-6.01344 -5.7633,0 -5.7633,0 -0.422,6.62773 c -0.39,6.12382 -0.7018,6.88411 -4.1018,10 l -3.6798,3.37227 -11.7647,-0.004 c -10.0357,-0.003 -12.2512,-0.30034 -15.0749,-2.02189 z m 25.6102,-7.17437 c 0.9178,-0.91776 1.2,-25.3619 1.2,-103.92857 0,-92.05628 -0.1633,-102.89183 -1.5714,-104.3 -1.2058,-1.20581 -3.7598,-1.57143 -10.977,-1.57143 -8.7642,0 -9.5103,0.15994 -10.9426,2.34586 -1.3618,2.07845 -1.5069,13.99455 -1.273,104.5366 0.2314,89.55458 0.4495,102.30798 1.764,103.13883 2.2372,1.41401 20.3485,1.23017 21.8,-0.22129 z m 53.1648,-0.73426 c 0.6942,-1.29707 1.0352,-35.53366 1.0352,-103.92857 0,-91.38877 -0.1634,-102.15771 -1.5714,-103.56574 -2.2602,-2.26014 -19.597,-2.26014 -21.8572,0 -1.4081,1.4081 -1.5714,12.20995 -1.5714,103.92857 0,91.71861 0.1633,102.52047 1.5714,103.92857 1.2168,1.21679 3.8042,1.57143 11.4648,1.57143 8.7579,0 10.0122,-0.22201 10.9286,-1.93426 z m 52.4638,0.36283 c 1.4081,-1.4081 1.5714,-12.20996 1.5714,-103.92857 0,-91.71862 -0.1633,-102.52047 -1.5714,-103.92857 -2.2602,-2.26014 -19.597,-2.26014 -21.8572,0 -1.408,1.40803 -1.5714,12.17697 -1.5714,103.56574 0,68.39491 0.341,102.6315 1.0352,103.92857 0.9163,1.71225 2.1707,1.93426 10.9286,1.93426 7.6606,0 10.248,-0.35464 11.4648,-1.57143 z m 52.5714,0.59272 c 1.31452,-0.83085 1.53265,-13.58425 1.76401,-103.13883 0.23392,-90.54205 0.0888,-102.45815 -1.27305,-104.5366 -1.43227,-2.18592 -2.17832,-2.34586 -10.94258,-2.34586 -7.21714,0 -9.77115,0.36562 -10.97695,1.57143 -1.40818,1.40817 -1.57143,12.24372 -1.57143,104.3 0,78.56667 0.28224,103.01081 1.2,103.92857 1.45146,1.45146 19.56284,1.6353 21.8,0.22129 z m -137,-27.52129 0,-8.5 -6,0 -6,0 0,8.5 0,8.5 6,0 6,0 0,-8.5 z m 53,0 0,-8.5 -6,0 -6,0 0,8.5 0,8.5 6,0 6,0 0,-8.5 z m 53,0 0,-8.5 -6,0 -6,0 0,8.5 0,8.5 6,0 6,0 0,-8.5 z m 57,0 0,-8.5 -8,0 -8,0 0,8.5 0,8.5 8,0 8,0 0,-8.5 z m -163,-77 0,-60.5 -6,0 -6,0 0,60.5 0,60.5 6,0 6,0 0,-60.5 z m 53,0 0,-60.5 -6,0 -6,0 0,60.5 0,60.5 6,0 6,0 0,-60.5 z m 53,0 0,-60.5 -6,0 -6,0 0,60.5 0,60.5 6,0 6,0 0,-60.5 z m -159,-77 0,-8.5 -8,0 -8,0 0,8.5 0,8.5 8,0 8,0 0,-8.5 z m 53,0 0,-8.5 -6,0 -6,0 0,8.5 0,8.5 6,0 6,0 0,-8.5 z m 53,0 0,-8.5 -6,0 -6,0 0,8.5 0,8.5 6,0 6,0 0,-8.5 z m 53,0 0,-8.5 -6,0 -6,0 0,8.5 0,8.5 6,0 6,0 0,-8.5 z m 53,0 0,-8.5 -6,0 -6,0 0,8.5 0,8.5 6,0 6,0 0,-8.5 z"
       style="fill:#040404" />
  </g>
</svg>
