<?xml version="1.0" encoding="UTF-8" standalone="no"?>
<svg
   xmlns:dc="http://purl.org/dc/elements/1.1/"
   xmlns:cc="http://creativecommons.org/ns#"
   xmlns:rdf="http://www.w3.org/1999/02/22-rdf-syntax-ns#"
   xmlns:svg="http://www.w3.org/2000/svg"
   xmlns="http://www.w3.org/2000/svg"
   version="1.1"
   id="svg2"
   viewBox="0 0 250.00146 108.19613"
   height="108.19613"
   width="250.00145">
  <defs
     id="defs4" />
  <metadata
     id="metadata7">
    <rdf:RDF>
      <cc:Work
         rdf:about="">
        <dc:format>image/svg+xml</dc:format>
        <dc:type
           rdf:resource="http://purl.org/dc/dcmitype/StillImage" />
        <dc:title></dc:title>
      </cc:Work>
    </rdf:RDF>
  </metadata>
  <g
     transform="translate(-362.32866,-550.53264)"
     id="layer1">
    <path
       id="path3386"
       d="m 367.64318,656.78224 c -1.7524,-1.06851 -3.6649,-2.83724 -4.25,-3.93052 -0.70786,-1.32265 -1.06382,-17.49434 -1.06382,-48.331 0,-50.80511 -0.19793,-49.08318 6.01104,-52.29397 4.36809,-2.25882 233.60985,-2.25882 237.97794,0 6.21072,3.2117 6.01104,1.46751 6.01104,52.50572 0,51.03821 0.19968,49.29402 -6.01104,52.50571 -2.51519,1.30065 -17.96023,1.49381 -119.18931,1.49055 -113.3938,-0.004 -116.37928,-0.0523 -119.48585,-1.94649 z m 235.85746,-6.70476 c 1.71828,-1.55502 1.82874,-4.28339 1.82874,-45.17126 0,-39.08903 -0.16837,-43.70232 -1.65499,-45.34501 -1.58497,-1.75138 -6.49975,-1.82874 -116.17127,-1.82874 -105.15528,0 -114.66577,0.13528 -116.34502,1.65498 -1.71828,1.55503 -1.82874,4.2834 -1.82874,45.17127 0,39.08902 0.16838,43.70232 1.65499,45.34501 1.58497,1.75137 6.49975,1.82874 116.17127,1.82874 105.15528,0 114.66577,-0.13528 116.34502,-1.65499 z M 395.82936,632.85966 c -2.62307,-0.55624 -3.0397,-1.11858 -3.31596,-4.47563 l -0.31597,-3.83945 3.31597,0.84395 c 1.82378,0.46417 7.89303,0.84394 13.48722,0.84394 9.38887,0 10.36963,-0.18648 12.75,-2.42431 3.33683,-3.137 3.39962,-7.41043 0.15309,-10.41921 -1.33411,-1.23641 -6.34115,-3.80242 -11.12676,-5.70225 -11.08186,-4.39936 -16.39006,-8.91189 -17.13319,-14.56499 -1.28472,-9.77305 6.32525,-16.43782 19.56881,-17.13825 4.18924,-0.22156 9.41679,-0.0136 11.61679,0.46213 3.47663,0.75179 4.03887,1.25645 4.29703,3.85694 l 0.29703,2.99198 -11.43468,-0.031 c -13.06188,-0.0354 -15.65938,1.11733 -15.65938,6.94965 0,4.36829 2.72785,6.59134 14,11.40927 12.58808,5.38037 16.00001,8.91184 16.00001,16.56058 0,10.63336 -7.93561,15.64626 -24.42815,15.43117 -4.98952,-0.0651 -10.42186,-0.4046 -12.07186,-0.7545 z m 43.50001,0.24078 c 0,-0.41087 4.33644,-13.26174 9.63654,-28.5575 l 9.63654,-27.81047 5.71938,0 5.71937,0 9.22165,27.25 c 5.07191,14.9875 9.19469,27.7 9.16174,28.25 -0.033,0.55 -1.82329,1.1362 -3.97852,1.30266 l -3.91859,0.30266 -2.18059,-6.55266 -2.18058,-6.55266 -12.22593,0 -12.22593,0 -1.99372,6.25 -1.99371,6.25 -4.19883,0.3075 c -2.30935,0.16912 -4.19882,-0.0287 -4.19882,-0.43953 z m 34,-20.15961 c 0,-1.09386 -8.85146,-27.39315 -9.40638,-27.94808 -0.24666,-0.24665 -2.32415,5.51918 -4.61664,12.81296 -2.2925,7.29378 -4.3983,13.86113 -4.67957,14.59409 -0.40416,1.05323 1.50302,1.33267 9.0956,1.33267 5.28385,0 9.60699,-0.35624 9.60699,-0.79164 z m 27,-7.70836 0,-28.5 4,0 4,0 0,25 0,25 13,0 13,0 0,3.5 0,3.5 -17,0 -17,0 0,-28.5 z m 45,0.0242 0,-28.5242 17.00001,0 17,0 0,3 0,3 -13,0 -13,0 0,9 0,9 12.5,0 12.5,0 0,3 0,3 -12.5,0 -12.5,0 0,10 0,10 13.06336,0 13.06336,0 -0.31336,3.25 -0.31336,3.25 -16.75,0.27418 -16.75001,0.27418 0,-28.52418 z"
       style="fill:#060606" />
  </g>
</svg>
