<?xml version="1.0" encoding="UTF-8" standalone="no"?>
<svg
   xmlns:dc="http://purl.org/dc/elements/1.1/"
   xmlns:cc="http://creativecommons.org/ns#"
   xmlns:rdf="http://www.w3.org/1999/02/22-rdf-syntax-ns#"
   xmlns:svg="http://www.w3.org/2000/svg"
   xmlns="http://www.w3.org/2000/svg"
   version="1.1"
   id="svg2"
   viewBox="0 0 246.98647 247.00041"
   height="247.00041"
   width="246.98648">
  <defs
     id="defs4" />
  <metadata
     id="metadata7">
    <rdf:RDF>
      <cc:Work
         rdf:about="">
        <dc:format>image/svg+xml</dc:format>
        <dc:type
           rdf:resource="http://purl.org/dc/dcmitype/StillImage" />
        <dc:title></dc:title>
      </cc:Work>
    </rdf:RDF>
  </metadata>
  <g
     transform="translate(413.88061,-187.0831)"
     id="layer1">
    <path
       id="path3516"
       d="m -344.12836,431.16635 c -3.20654,-2.86384 -3.27221,-3.09474 -3.6201,-12.72856 -0.53807,-14.90022 2.07826,-18.35469 13.90137,-18.35469 l 5.95295,0 0,-15 0,-15 -2.32186,0 c -8.09004,0 -19.66761,-8.23169 -24.46178,-17.3924 -2.47814,-4.73524 -2.6995,-6.18293 -3.0364,-19.8576 -0.36258,-14.7171 -0.36864,-14.75 -2.71591,-14.75 -1.29389,0 -3.61515,-1.08462 -5.15825,-2.41026 -2.5564,-2.19606 -2.8502,-3.15144 -3.3058,-10.75 l -0.5,-8.33974 -11.5,-0.25435 c -6.5299,-0.14443 -12.5093,-0.77742 -13.8353,-1.46464 -4.9854,-2.58368 -5.1647,-4.05006 -5.1647,-42.23135 l 0,-35.54966 -2.9529,0 c -4.2747,0 -7.9884,-1.98574 -9.6221,-5.14502 -1.6315,-3.155 -1.9293,-15.39846 -0.468,-19.24198 2.1081,-5.54475 2.7656,-5.613 54.07026,-5.613 l 47.12659,0 2.92307,2.92308 c 2.77982,2.77981 2.92308,3.34665 2.92308,11.56574 0,4.75346 -0.46334,9.50842 -1.02964,10.56657 -1.37158,2.56282 -6.15033,4.94461 -9.9207,4.94461 -3.9202,0 -3.95069,1.64319 -0.0464,2.50071 3.90264,0.85717 8.64432,5.64465 9.17555,9.2642 0.97924,6.67187 -3.06406,12.66214 -9.40225,13.92978 l -2.77655,0.55531 0,22.375 0,22.375 71.53212,0 c 76.91476,0 76.2221,-0.0444 79.83719,5.11687 1.18658,1.69409 1.63069,4.56728 1.63069,10.54987 0,7.10153 -0.30871,8.58063 -2.26582,10.8559 -1.24619,1.44879 -3.83369,2.95335 -5.75,3.34347 l -3.48418,0.7093 -0.56831,9.46229 c -0.71091,11.8365 -4.38338,20.26273 -12.41809,28.49238 -9.92018,10.16086 -22.71337,14.44715 -43.16556,14.46237 l -10.15196,0.008 -1.9371,3.75 c -2.74053,5.30535 -8.55126,9.08097 -15.75898,10.23965 -7.51024,1.20732 -9.5,3.32718 -9.5,10.12113 l 0,4.88922 6.75,0.0222 c 10.9791,0.0362 13.25,3.03753 13.25,17.51202 0,9.65908 -0.002,9.66808 -3.4,13.06574 l -3.4,3.4 -41.08422,0 -41.08423,0 -3.26577,-2.91675 z m 83.73422,-14.08325 0,-8.5 -39.5,0 -39.5,0 -0.30341,6.46915 c -0.16687,3.55803 -0.0445,7.50074 0.27197,8.76158 l 0.57536,2.29244 39.22804,-0.26158 39.22804,-0.26159 0,-8.5 z m -19.4144,-24.31893 c 0.52054,-6.0614 0.96723,-7.20057 4.02097,-10.25431 2.72224,-2.72223 4.86887,-3.73531 10.34079,-4.88018 4.76139,-0.99621 7.69742,-2.23681 9.4563,-3.99569 l 2.55089,-2.55089 -32.72728,0 -32.72727,0 0,14.52159 0,14.5216 19.25,-0.2716 19.25,-0.27159 0.5856,-6.81893 z m 61.48074,-30.76713 c 12.20178,-2.23335 22.08164,-9.51579 27.69492,-20.41394 2.57404,-4.99749 3.165,-7.462 3.53689,-14.75 l 0.44649,-8.75 -81.7358,0 -81.7358,0 0.37789,13.76013 c 0.35339,12.86827 0.55664,14.06516 3.13577,18.46612 3.40885,5.81676 8.40533,9.72857 14.53385,11.37876 6.16412,1.65977 104.90042,1.92793 113.74579,0.30893 z m 43.23058,-58.63311 c 0.27568,-5.77445 0.13267,-6.25891 -2,-6.7749 -1.26331,-0.30565 -43.02192,-0.43202 -92.79692,-0.28083 l -90.5,0.2749 -0.29581,6.75519 -0.29581,6.75518 92.79581,-0.25518 92.79581,-0.25519 0.29692,-6.21917 z m -152.79692,-50.78083 0,-35.5 -32,0 -32,0 0,34.83333 c 0,19.15834 0.3,35.13334 0.6667,35.5 0.3666,0.36667 14.7666,0.66667 31.99997,0.66667 l 31.33333,0 0,-35.5 z m 10.41821,-18.10699 c 1.86423,-0.71537 2.09623,-4.47857 0.38179,-6.19301 -2.06732,-2.06732 -2.8,-1.33463 -2.8,2.8 0,4.28426 0.0205,4.31308 2.41821,3.39301 z m 3.37771,-32.65313 0.29592,-6.76012 -45.79592,0.26012 -45.79592,0.26012 -0.3068,5.3808 c -0.1687,2.95944 -0.069,6.00154 0.2225,6.76021 0.4413,1.14979 8.0663,1.33609 45.80683,1.1192 l 45.27747,-0.26021 0.29592,-6.76012 z"
       style="fill:#080808" />
  </g>
</svg>
