<?xml version="1.0" encoding="UTF-8" standalone="no"?>
<svg
   xmlns:dc="http://purl.org/dc/elements/1.1/"
   xmlns:cc="http://creativecommons.org/ns#"
   xmlns:rdf="http://www.w3.org/1999/02/22-rdf-syntax-ns#"
   xmlns:svg="http://www.w3.org/2000/svg"
   xmlns="http://www.w3.org/2000/svg"
   version="1.1"
   id="svg2"
   viewBox="0 0 245.00647 200.90773"
   height="200.90773"
   width="245.00648">
  <defs
     id="defs4" />
  <metadata
     id="metadata7">
    <rdf:RDF>
      <cc:Work
         rdf:about="">
        <dc:format>image/svg+xml</dc:format>
        <dc:type
           rdf:resource="http://purl.org/dc/dcmitype/StillImage" />
        <dc:title></dc:title>
      </cc:Work>
    </rdf:RDF>
  </metadata>
  <g
     transform="translate(193.27286,-652.97071)"
     id="layer1">
    <path
       id="path3529"
       d="m -167.97479,851.5881 c -0.51986,-1.25968 -6.67383,-30.11411 -13.67551,-64.12095 -10.68017,-51.87319 -12.50025,-61.97622 -11.30174,-62.73469 0.79937,-0.50588 22.62933,-0.91081 49.56436,-0.91938 l 48.135803,-0.0153 -2.94364,-10.75 c -4.881543,-17.82708 -2.727073,-25.37057 11.21993,-39.28461 19.98085,-19.93361 49.73876,-26.04525 78.4521099,-16.11239 10.23684,3.54125 15.83336,7.13071 19.0414801,12.21272 5.78065,9.15713 35.75458,78.89542 38.9393,90.59738 3.87726,14.24666 2.73311,32.46721 -2.91099,46.35742 -8.38866,20.64462 -27.10071,36.93443 -50.7411601,44.17281 -7.2834899,2.23011 -7.8075099,2.24591 -85.0816899,2.56563 l -77.753073,0.3217 -0.94518,-2.29033 z m 166.1173629,-7.39226 c 16.5376001,-5.91948 32.6341201,-19.04118 39.7611201,-32.4128 5.51544,-10.34804 7.21216,-16.57547 7.76106,-28.48527 0.9647,-20.93169 -4.90361,-36.83659 -18.67093,-50.60391 -12.26043,-12.26043 -26.72264014,-18.24161 -44.0173,-18.20436 -31.821,0.0685 -56.92024,22.63812 -58.72716,52.80827 -0.91423,15.26487 4.33877,29.10038 15.23284,40.12073 10.35482,10.47485 21.90446,14.90315 36.8888,14.1437 15.2015999,-0.77046 26.2620299,-6.35903 34.81768,-17.59255 10.15836,-13.33786 11.4272,-29.4584 3.50201,-44.49281 -7.0152501,-13.30821 -22.4469501,-21.0825 -37.11073,-18.6959 -16.45572,2.67823 -29.10831,17.61492 -27.18741,32.09537 1.84529,13.91048 11.08925,22.87754 23.58397,22.87754 9.57279,0 16.3719999,-4.49317 19.0421299,-12.58374 2.34816,-7.11498 -2.21598,-16.37234 -8.0720099,-16.37234 -3.4596,0 -4.42216,1.35757 -4.12206,5.81365 0.42086,6.24917 -3.93812,8.1872 -8.39351,3.7318 -3.64946,-3.64945 -3.27991,-7.92009 1.06096,-12.26096 3.41909,-3.41909 3.69288,-3.50421 9.98265,-3.10371 5.48212,0.34908 6.9454799,0.86168 9.6076499,3.36551 4.20056,3.95071 5.89419,8.24971 5.89419,14.96143 0,9.67268 -6.00301,17.60163 -15.8721299,20.96438 -24.65848,8.40199 -46.87398,-19.18495 -35.32452,-43.86556 3.83111,-8.1869 9.65184,-13.97857 18.0454,-17.95529 6.14758,-2.91262 7.44637,-3.15125 17.15125,-3.15125 9.7442799,0 10.9875399,0.23094 17.27382986,3.20861 28.11865014,13.31918 33.91510014,50.84866 11.38456014,73.71007 -20.7789101,21.08405 -54.82185,20.71837 -76.2091,-0.81861 -10.42685,-10.49984 -12.3361,-15.02352 -21.35604,-50.60007 l -7.73285,-30.5 -47.152573,-0.25977 c -37.56215,-0.20694 -47.06792,-0.004 -46.73639,1 0.22889,0.69287 5.64174,26.68477 12.02856,57.75977 6.38682,31.075 11.80315,57.07596 12.03629,57.77991 0.34055,1.02826 15.41976,1.22488 76.693803,1 l 76.26991,-0.27991 8.6660499,-3.10193 z M -75.285567,743.27198 c 11.58725,-22.49202 35.31184,-35.55042 62.16487,-34.21657 15.2952999,0.75976 24.81476,4.4283 39.86717,15.3637 2.09238,1.52009 1.98759,0.99317 -1.33959,-6.73612 -1.98524,-4.61187 -4.9583,-11.76022 -6.6068,-15.88522 -6.93291,-17.34803 -11.1842901,-26.70244 -13.5829001,-29.88679 -3.18494,-4.22825 -13.81608,-9.25738 -24.5792699,-11.62738 -5.8702,-1.29259 -10.76697,-1.6118 -19.5,-1.27118 -13.0557,0.50923 -21.8694,2.98574 -31.90415,8.96456 -12.90867,7.69114 -24.26722,21.88366 -24.2481,30.29804 0.005,2.21251 3.15503,16.3348 7,31.38286 3.84497,15.04806 7.01506,27.64806 7.04464,28 0.0296,0.35194 0.85396,-1.83511 1.83196,-4.86011 0.97801,-3.025 2.71148,-7.3116 3.85217,-9.52579 z"
       style="fill:#0b0b0b" />
  </g>
</svg>
