<?xml version="1.0" encoding="UTF-8" standalone="no"?>
<svg
   xmlns:dc="http://purl.org/dc/elements/1.1/"
   xmlns:cc="http://creativecommons.org/ns#"
   xmlns:rdf="http://www.w3.org/1999/02/22-rdf-syntax-ns#"
   xmlns:svg="http://www.w3.org/2000/svg"
   xmlns="http://www.w3.org/2000/svg"
   version="1.1"
   id="svg2"
   viewBox="0 0 243.82213 243.9151"
   height="243.9151"
   width="243.82214">
  <defs
     id="defs4" />
  <metadata
     id="metadata7">
    <rdf:RDF>
      <cc:Work
         rdf:about="">
        <dc:format>image/svg+xml</dc:format>
        <dc:type
           rdf:resource="http://purl.org/dc/dcmitype/StillImage" />
        <dc:title></dc:title>
      </cc:Work>
    </rdf:RDF>
  </metadata>
  <g
     transform="translate(92.305125,-205.16988)"
     id="layer1">
    <path
       id="path3542"
       d="m 10.33333,447.60825 c -11.13724,-1.73364 -28.09691,-7.38932 -37.74904,-12.58847 -14.52932,-7.82627 -29.1674,-19.90694 -38.01152,-31.37056 l -4.21842,-5.46786 3.11497,-2.90981 c 3.64299,-3.40307 4.05792,-7.16445 1.11497,-10.1074 -2.41973,-2.41973 -6.20064,-2.56986 -9.54434,-0.37899 l -2.47398,1.62101 -3.38607,-7.37101 c -10.16994,-22.13855 -13.68969,-46.40138 -10.14372,-69.92411 1.57436,-10.44374 6.69062,-27.56815 8.13935,-27.24285 0.49982,0.11224 2.36166,0.76977 4.13742,1.46119 2.86012,1.11363 3.545,1.02197 6,-0.80293 1.75571,-1.30509 2.88302,-3.17249 3.07607,-5.09555 0.30114,-2.9997 -1.04991,-4.6612 -6.35979,-7.82111 -1.60795,-0.9569 -1.24935,-1.84757 3.87955,-9.63572 17.44985,-26.49733 44.265,-44.87844 75.67551,-51.87367 11.5073,-2.56271 13,-2.51347 13,0.42888 0,1.30083 0.93266,3.55083 2.07258,5 4.1853,5.32075 11.92742,2.16277 11.92742,-4.86514 0,-3.37883 0.12983,-3.4998 3.75,-3.4941 7.72596,0.0121 23.78746,3.09127 34.0912,6.53558 22.54535,7.53639 41.23945,20.57292 56.23975,39.21936 l 6.03795,7.50561 -2.55945,2.6715 c -3.22376,3.36488 -3.26444,7.05111 -0.11052,10.01407 2.38485,2.24045 4.48775,2.38946 8.6822,0.6152 1.2998,-0.54982 2.24496,0.79518 4.65301,6.6214 11.80751,28.56806 13.3283,57.56961 4.47598,85.35716 l -2.8479,8.93958 -3.63557,-0.31322 c -7.02384,-0.60514 -10.28564,6.59461 -5.33373,11.77314 l 2.44291,2.55472 -5.40334,8.08552 c -18.59037,27.8185 -48.75974,47.37059 -81.52902,52.83713 -3.32954,0.55544 -3.62222,0.38232 -4.78359,-2.82939 -2.77275,-7.66792 -13.16988,-5.81978 -13.16988,2.341 0,1.87764 -0.56911,2.05692 -6.25,1.96888 -3.4375,-0.0533 -10.18793,-0.70984 -15.00096,-1.45904 z m 15.25096,-6.36737 c 0,-2.30624 5.46019,-7.12356 9.22244,-8.13663 4.98189,-1.34148 11.96988,0.8976 14.40629,4.61603 1.84151,2.81049 3.50377,2.64599 16.59378,-1.64217 22.10761,-7.24225 41.1465,-20.92408 55.23069,-39.69018 6.05371,-8.06611 6.26453,-8.5386 4.94131,-11.07468 -1.83298,-3.51308 -1.76292,-9.53599 0.15404,-13.24298 1.74573,-3.37588 6.88223,-6.89676 10.06967,-6.90238 1.73018,-0.003 2.40406,-1.0571 3.67853,-5.75374 3.44521,-12.69631 4.15844,-18.24985 4.14178,-32.25 -0.0191,-16.01062 -1.62749,-25.91105 -6.30664,-38.81956 l -2.7727,-7.64913 -4.39808,-0.75081 c -3.08392,-0.52646 -5.45331,-1.80591 -7.9296,-4.2819 -3.14934,-3.14897 -3.52974,-4.09747 -3.51517,-8.76485 0.009,-2.87856 0.39212,-6.4587 0.85141,-7.95587 0.77327,-2.52066 0.0628,-3.48276 -9.59958,-13 C 91.48768,227.36066 69.12351,216.2925 44.50103,213.35175 l -6.72938,-0.80371 -1.58077,3.3149 c -4.39586,9.21823 -18.88174,9.8769 -24.06967,1.09443 -1.61022,-2.72588 -2.03084,-2.88622 -5.88554,-2.24346 -6.44392,1.07451 -20.81513,5.99943 -27.8167,9.5326 -15.76369,7.95475 -33.20447,22.88526 -42.25432,36.17261 l -3.91964,5.75497 2.28546,2.43277 c 1.39579,1.48575 2.47942,4.15362 2.78374,6.85346 0.93654,8.30897 -4.25429,14.45512 -13.22992,15.66476 l -4,0.53907 -1.74415,6.98592 c -5.75969,23.0695 -4.3546,47.96635 3.92524,69.5515 l 2.86256,7.46258 4.97818,0.52858 c 6.03874,0.6412 9.77911,2.97849 11.89202,7.43111 2.0056,4.22649 2.02104,8.79865 0.0426,12.62448 -1.43798,2.78074 -1.40281,3.18246 0.51442,5.87496 3.18058,4.46671 14.77191,14.76771 22.5291,20.02119 12.96249,8.77872 26.46888,14.50111 41,17.37089 12.4245,2.45374 19.5,3.07984 19.5,1.72552 z m -15.5,-20.56213 c -37.55777,-8.30275 -66.01262,-37.05739 -74.04983,-74.82998 -1.86697,-8.77423 -1.86697,-28.59501 0,-37.36924 4.20948,-19.78337 13.18887,-35.95829 27.69069,-49.88029 18.74931,-17.99967 39.76492,-26.43509 65.85914,-26.43509 27.20105,0 49.81682,9.61195 68.56491,29.14086 8.15879,8.49859 11.78982,13.58885 16.66271,23.35914 7.81689,15.67308 10.20169,27.3648 9.532,46.73169 -0.41261,11.93249 -0.9416,15.65982 -3.23136,22.76831 -11.18431,34.7214 -37.76629,59.12035 -72.52826,66.57193 -8.18818,1.75522 -30.45084,1.72207 -38.5,-0.0573 z m 40.37097,-3.99178 c 17.34904,-4.23734 30.23292,-11.62671 43.62903,-25.02282 13.50232,-13.50232 20.69927,-26.11703 25.18651,-44.14657 2.34142,-9.40773 2.34142,-31.29913 0,-40.70686 -4.05994,-16.31265 -11.38908,-29.88462 -22.60795,-41.865 -12.34102,-13.1787 -27.38673,-22.2682 -44.57856,-26.93106 -11.45743,-3.10755 -33.54257,-3.10755 -45,0 -17.19183,4.66286 -32.23754,13.75236 -44.57856,26.93106 -16.73857,17.87474 -24.31365,37.25931 -24.31365,62.21843 0,24.95912 7.57508,44.34369 24.31365,62.21843 14.38038,15.35649 30.84295,24.43959 51.42013,28.37069 8.80102,1.68137 27.51634,1.13506 36.5294,-1.0663 z m -31.81039,-5.55528 c -34.37425,-4.73922 -62.20851,-29.573 -71.13587,-63.46754 -2.93639,-11.14859 -2.94811,-29.76735 -0.0258,-41 7.77314,-29.8781 31.52999,-53.62235 61.60109,-61.56844 11.21074,-2.96236 29.78926,-2.96236 41,0 30.0711,7.94609 53.82795,31.69034 61.60109,61.56844 2.92231,11.23265 2.91059,29.85141 -0.0258,41 -9.59203,36.41809 -40.30857,61.67632 -77.63286,63.83755 -4.91834,0.28479 -11.84017,0.11829 -15.38185,-0.37001 z m 28.43942,-8.60538 c 6.7142,-1.49842 20.97153,-7.55335 24.85704,-10.55653 1.77272,-1.37017 1.72732,-1.52254 -1,-3.35581 -4.69086,-3.15314 -11.28166,-2.61573 -16.50863,1.3461 -6.35672,4.81813 -11.77876,7.15725 -16.64807,7.18212 -5.16575,0.0264 -8.55661,-1.61738 -13.11038,-6.35545 -6.32909,-6.58523 -16.02495,-5.87014 -24.31818,1.79352 l -4.72823,4.36928 5.22823,2.03247 c 15.49373,6.02318 30.10201,7.14319 46.22822,3.5443 z M -1.43654,388.69214 c 4.41875,-4.30518 9.67056,-6.52799 15.42361,-6.52799 6.15112,0 9.37938,1.41518 14.3898,6.30809 3.95994,3.86707 4.70787,4.19191 9.65159,4.19191 4.51731,0 6.04198,-0.51824 9.70742,-3.29953 10.44008,-7.92184 18.00842,-9.00743 25.98692,-3.72751 l 4.1019,2.71451 6.72851,-6.87681 c 3.70069,-3.78224 7.21082,-7.77799 7.8003,-8.87945 1.00736,-1.88226 0.76098,-2.00421 -4.09872,-2.0288 -5.7611,-0.0292 -9.3035,-1.58293 -15.59748,-6.8414 -3.59227,-3.00126 -5.02128,-3.56101 -9.09104,-3.56101 -3.96096,0 -5.63737,0.6172 -9.3279,3.43425 -11.98813,9.15075 -19.55716,9.59688 -28.16739,1.66025 -5.03263,-4.63892 -7.67156,-5.52337 -14.51738,-4.86557 -4.02863,0.3871 -5.72701,1.21477 -9.35514,4.55907 -8.53968,7.8716 -17.46437,7.7619 -24.06708,-0.29584 -3.21016,-3.91758 -4.17692,-4.49216 -7.55828,-4.49216 -2.58065,0 -4.75317,0.75341 -6.49644,2.2529 l -2.61916,2.25291 4.92738,6.99709 c 4.46998,6.34757 13.43029,15.15989 20.11603,19.78378 3.5331,2.44352 7.70159,1.49019 12.06255,-2.75869 z m 0.35371,-26.48071 c 5.2848,-4.87136 8.25301,-6.04728 15.26434,-6.04728 6.78333,0 10.90469,1.71331 15.34895,6.38076 3.07482,3.22925 3.99074,3.61867 8.5,3.61398 3.14448,-0.003 6.03136,-0.66443 7.64123,-1.75 12.36121,-8.3354 12.165,-8.24487 17.85838,-8.23948 5.74651,0.005 6.80932,0.48116 15.06872,6.74474 3.49556,2.65089 5.19728,3.25 9.23125,3.25 7.10814,0 10.20481,-2.21344 13.21963,-9.44914 2.44028,-5.85675 5.53462,-16.62534 5.53462,-19.26096 0,-2.04889 -1.34384,-1.5454 -6.41005,2.40165 -3.92436,3.05744 -5.72673,3.76306 -10.49267,4.10779 -6.40039,0.46297 -10.52417,-1.19691 -17.36882,-6.99119 -3.08527,-2.61181 -4.63193,-3.19166 -8.5,-3.18669 -4.12481,0.005 -5.80489,0.74864 -13.16023,5.82259 -4.63748,3.19907 -10.26248,6.64799 -12.5,7.66426 -9.42336,4.28004 -21.2728,0.71716 -26.71127,-8.03151 -3.02406,-4.8647 -3.17776,-4.96227 -5.73451,-3.64012 -1.44495,0.74721 -3.52505,2.3507 -4.62245,3.56332 -3.08296,3.40663 -6.95465,5 -12.14938,5 -4.39819,0 -5.09104,-0.36463 -9.38665,-4.94003 -2.55087,-2.71702 -5.77239,-5.22477 -7.15893,-5.57277 -3.16811,-0.79514 -9.29175,1.68518 -10.7119,4.33876 -0.58731,1.09741 -2.60209,2.9435 -4.47727,4.10243 l -3.40944,2.10715 1.27622,4.23223 c 0.70191,2.32773 1.99846,5.95791 2.8812,8.06707 l 1.60499,3.83483 2.65044,-2.08483 c 1.85343,-1.45791 4.09928,-2.08484 7.46853,-2.08484 6.26885,0 8.79601,1.252 12.22704,6.05751 2.62836,3.68128 3.14332,3.94249 7.77235,3.94249 4.38394,0 5.4536,-0.4573 9.24568,-3.95272 z m 39.41607,-22.86852 c 8.95281,-6.37496 7.7445,-20.86954 -2.13039,-25.55547 -10.45596,-4.96169 -22.33109,3.1069 -21.33916,14.49895 0.75662,8.68969 7.26677,14.26619 15.84284,13.57073 2.59676,-0.21058 5.93881,-1.31231 7.62671,-2.51421 z m -40.12903,-3.28255 c 2.60786,-2.25708 5.78522,-4.57931 7.06082,-5.16051 1.79096,-0.81602 2.32426,-1.87437 2.34122,-4.64622 0.0121,-1.97421 0.93893,-5.61109 2.05967,-8.08196 l 2.0377,-4.49247 -2.17045,-1.75753 c -2.10601,-1.70534 -5.24921,-2.18941 -11.44888,-1.7632 -3.95487,0.27188 -6.22749,1.50369 -10.74963,5.8265 -3.36769,3.21925 -4.41644,3.62681 -10.29613,4.0012 l -6.5465,0.41685 -4.76304,-5.18089 c -3.75079,-4.07984 -5.44416,-5.20026 -7.96796,-5.27202 -1.7627,-0.0501 -3.42887,0.13283 -3.70259,0.40655 -1.82034,1.82035 -2.21752,28.80749 -0.42397,28.80749 0.47989,0 2.65102,-1.79635 4.82472,-3.99188 4.39747,-4.44164 7.69634,-6.02547 12.4402,-5.97268 4.22521,0.047 6.83537,1.61208 11.20783,6.72031 3.10911,3.6323 4.18965,4.24425 7.49417,4.24425 3.08414,0 4.81555,-0.82593 8.60282,-4.10379 z m 97.4822,1.64471 c 1.86883,-1.35249 5.06131,-3.48615 7.09439,-4.74147 2.03309,-1.25531 3.87017,-2.96122 4.0824,-3.79092 0.56586,-2.21208 -1.13273,-18.27034 -2.02072,-19.10363 -1.51085,-1.41779 -10.25352,0.83015 -14.30804,3.67893 -7.65055,5.37541 -10.24844,6.41301 -16.0606,6.41462 -5.75272,0.002 -8.8472,-1.45434 -16.21628,-7.62965 -2.13388,-1.7882 -4.03343,-2.3688 -7.75,-2.3688 -2.7078,0 -4.92327,0.1793 -4.92327,0.39845 0,0.21915 1.39119,3.03165 3.09153,6.25 2.62057,4.96014 3.03241,6.69108 2.70348,11.36253 l -0.38805,5.51097 4.466,-2.26097 c 7.45881,-3.77614 14.21233,-2.63704 21.3093,3.59419 6.59783,5.79297 13.30985,6.74577 18.91986,2.68575 z M -14.92368,312.17105 c 6.56802,-5.68458 8.2138,-6.36819 15.50797,-6.44154 5.05443,-0.0508 7.35915,0.44238 10.36318,2.21769 l 3.86317,2.28305 5.08317,-2.53305 c 5.7638,-2.87222 11.97125,-3.27823 17.13487,-1.12073 2.87791,1.20247 3.9504,1.20899 7.21789,0.0439 2.11074,-0.75263 4.73772,-1.36842 5.83772,-1.36842 3.64969,0 9.22834,2.5557 13.85608,6.34779 4.67334,3.82945 10.18468,5.39847 14.84984,4.22759 1.2797,-0.32119 4.75104,-2.39275 7.71408,-4.60348 3.77828,-2.81897 7.13353,-4.36305 11.23368,-5.16971 3.21548,-0.6326 5.84632,-1.5591 5.84632,-2.05888 0,-0.49979 -1.64131,-4.49931 -3.64736,-8.88783 -4.14371,-9.06498 -4.72358,-9.40734 -14.84218,-8.76304 -5.33362,0.33962 -7.17345,0.96169 -10.7243,3.62603 -7.14351,5.36006 -9.98971,6.57262 -15.31211,6.52335 -5.67489,-0.0525 -9.23533,-1.61731 -15.40103,-6.7686 -3.54028,-2.95783 -5.04856,-3.56102 -8.90433,-3.56102 -3.87976,0 -5.73228,0.75167 -11.28061,4.57717 -3.65119,2.51744 -8.3546,4.96421 -10.45203,5.43725 -6.49839,1.46563 -12.76491,-0.62842 -16.65216,-5.56454 -2.5924,-3.2919 -7.12353,-4.7523 -13.18516,-4.24963 -4.58427,0.38017 -6.0993,1.07039 -10.12229,4.61157 -4.31032,3.79409 -9.50393,6.16812 -13.52555,6.1826 -1.26547,0.005 -3.95089,4.9247 -3.95089,7.23868 0,0.32511 1.78906,0.89336 3.97569,1.26279 2.37566,0.40137 4.89098,1.69421 6.25,3.21242 6.35115,7.09515 6.6387,7.29169 10.66804,7.29169 3.21065,0 4.8808,-0.77563 8.5983,-3.9931 z M -30.3065,288.31888 c 6.2622,-5.48417 7.94625,-6.15473 15.45702,-6.15473 7.32944,0 10.66442,1.47084 15.76854,6.95446 2.47567,2.65974 3.51104,3.04554 8.1734,3.04554 4.54178,0 6.01018,-0.5126 9.83775,-3.43425 6.86221,-5.23804 10.07198,-6.56623 15.85442,-6.56048 5.46347,0.005 6.62447,0.53401 14.81416,6.74473 3.56258,2.70171 5.16388,3.25 9.49174,3.25 4.4261,0 5.90421,-0.53301 9.86506,-3.55734 6.35602,-4.85318 10.57395,-6.44266 17.09658,-6.44266 3.04267,0 5.53212,-0.44589 5.53212,-0.99087 0,-0.54498 -2.8125,-3.95416 -6.25,-7.57595 l -6.25,-6.58508 -4.84621,3.78468 c -4.18898,3.27141 -5.69348,3.83864 -11.09364,4.18249 -7.01816,0.44689 -10.39955,-0.83924 -16.99015,-6.46225 -3.34978,-2.85798 -4.68772,-3.35302 -9.06226,-3.35302 -4.55315,0 -5.8478,0.53173 -11.47369,4.71239 -5.65935,4.20553 -7.00722,4.75479 -12.53138,5.10654 -6.90646,0.43977 -11.41502,-1.22934 -14.00727,-5.18561 -2.08355,-3.1799 -5.67902,-4.63332 -11.46187,-4.63332 -4.47034,0 -5.3378,0.42539 -10.51354,5.15572 -5.19224,4.74542 -12.59856,14.1553 -15.42225,19.59428 -1.05499,2.0321 -0.93623,2.25 1.22629,2.25 1.34949,0 4.31051,-1.67806 6.78518,-3.84527 z m 51.5316,-20.64049 c 8.09175,-5.80466 10.5909,-6.89048 15.85919,-6.89048 5.39058,0 8.40528,1.35854 15.32774,6.9073 3.48854,2.79627 5.1949,3.46894 8.79966,3.46894 4.83704,0 8.82857,-1.63638 11.68174,-4.7891 1.75491,-1.93915 1.72088,-2.05333 -1.24026,-4.16185 -5.1396,-3.65972 -17.19332,-8.73895 -24.76629,-10.43608 -9.2602,-2.07525 -25.34498,-2.07525 -34.60518,0 -7.114,1.59427 -23.13179,8.32761 -21.19741,8.91067 0.55,0.16578 2.18167,0.56034 3.62594,0.8768 1.44427,0.31647 4.68552,2.60583 7.20277,5.08748 4.18154,4.12238 5.00333,4.51208 9.51487,4.51208 4.04362,0 5.81817,-0.63137 9.79723,-3.48576 z"
       style="fill:#0b0b0b" />
  </g>
</svg>
