<?xml version="1.0" encoding="UTF-8" standalone="no"?>
<svg
   xmlns:dc="http://purl.org/dc/elements/1.1/"
   xmlns:cc="http://creativecommons.org/ns#"
   xmlns:rdf="http://www.w3.org/1999/02/22-rdf-syntax-ns#"
   xmlns:svg="http://www.w3.org/2000/svg"
   xmlns="http://www.w3.org/2000/svg"
   version="1.1"
   id="svg2"
   viewBox="0 0 248.99999 144.9539"
   height="144.9539"
   width="249">
  <defs
     id="defs4" />
  <metadata
     id="metadata7">
    <rdf:RDF>
      <cc:Work
         rdf:about="">
        <dc:format>image/svg+xml</dc:format>
        <dc:type
           rdf:resource="http://purl.org/dc/dcmitype/StillImage" />
        <dc:title></dc:title>
      </cc:Work>
    </rdf:RDF>
  </metadata>
  <g
     transform="translate(657.30511,-614.24253)"
     id="layer1">
    <path
       id="path3555"
       d="m -499.50122,756.82976 c -1.89154,-2.6043 -4.88716,0.39466 29.50071,-29.5337 l 10.80461,-9.40344 2.16364,2.16364 c 1.89284,1.89284 1.97988,2.33656 0.69539,3.54516 -3.1107,2.92695 -40.96752,35.62476 -41.2111,35.595 -0.14143,-0.0173 -1.0204,-1.08228 -1.95325,-2.36666 z m -18.15193,-6.25388 c -1.79738,-2.41609 -1.79738,-2.5235 0,-3.91857 1.21368,-0.94202 1.33315,-1.2771 0.34803,-0.97617 -0.95577,0.29196 -12.56608,-10.39943 -32,-29.46728 l -30.5,-29.92548 -15.75,-0.0303 -15.75,-0.0303 0,4.84501 c 0,7.64209 -1.08631,8.15499 -17.27204,8.15499 -12.93527,0 -13.69222,-0.11089 -15.17126,-2.22251 -0.85618,-1.22237 -1.5567,-4.14737 -1.5567,-6.5 l 0,-4.27749 -6,0 -6,0 0,-29.5 0,-29.5 5.87617,0 5.87617,0 0.46374,-5.59204 c 0.27244,-3.28535 1.04539,-5.96025 1.87383,-6.48469 0.77555,-0.49095 7.56545,-0.89954 15.08866,-0.90796 16.04273,-0.018 16.82143,0.35498 16.82143,8.05612 l 0,4.92857 78.5,0 78.5,0 0,-4.92857 c 0,-7.70114 0.7787,-8.07408 16.82143,-8.05612 7.52321,0.008 14.31311,0.41701 15.08866,0.90796 0.82844,0.52444 1.60139,3.19934 1.87383,6.48469 l 0.46374,5.59204 5.87617,0 5.87617,0 0,29.5 0,29.5 -6,0 -6,0 0,4.27749 c 0,2.35263 -0.70052,5.27763 -1.5567,6.5 -1.48067,2.11395 -2.23019,2.22251 -15.34502,2.22251 -16.09248,0 -17.09828,-0.48993 -17.09828,-8.32874 l 0,-4.67126 -13.57045,0 -13.57046,0 6.73911,7.5 c 6.83542,7.60718 7.78883,8.30082 8.91188,6.48369 0.78021,-1.26241 2.16343,-0.46227 3.49184,2.0199 0.88436,1.65243 -2.18776,4.77112 -24.24462,24.61217 -13.89152,12.49599 -26.1573,23.50668 -27.2573,24.46822 -1.92123,1.67938 -2.07278,1.6504 -3.84803,-0.73594 z m 14.33011,-17.23767 c 6.50057,-5.23629 28.46729,-25.08745 28.805,-26.03085 0.15789,-0.44109 -7.39936,-8.84454 -16.79389,-18.67434 -13.99813,-14.64672 -17.02791,-18.32654 -16.78707,-20.38878 0.23299,-1.99502 0.92735,-2.57835 3.3513,-2.8154 2.64758,-0.25891 3.76267,0.51186 8.31867,5.75 l 5.26126,6.049 18.43132,0 18.43133,0 0,-21 0,-21 -78.5,0 -78.5,0 0,21 c 0,11.55 0.1125,21.05222 0.25,21.11604 0.1375,0.0638 8.17996,0.40428 17.87213,0.75658 l 17.62213,0.64054 31.37787,30.66645 c 31.35588,30.64496 31.37962,30.66536 33.87787,29.10379 1.375,-0.85946 4.51694,-3.18732 6.98208,-5.17303 z m -116.98208,-76.61037 0,-33.5 -8,0 -8,0 0,33.5 0,33.5 8,0 8,0 0,-33.5 z m 191,0 0,-33.5 -8,0 -8,0 0,33.5 0,33.5 8,0 8,0 0,-33.5 z m -216,-0.57332 c 0,-19.53131 -0.12805,-21.04871 -1.75,-20.73696 -1.58904,0.30542 -1.77486,2.2437 -2.02029,21.07332 -0.26366,20.2289 -0.22079,20.73696 1.75,20.73696 1.96314,0 2.02029,-0.59612 2.02029,-21.07332 z m 228.77029,0.33636 c -0.24543,-18.82962 -0.43125,-20.7679 -2.02029,-21.07332 -1.62195,-0.31175 -1.75,1.20565 -1.75,20.73696 0,20.4772 0.0571,21.07332 2.02029,21.07332 1.97079,0 2.01366,-0.50806 1.75,-20.73696 z"
       style="fill:#090909" />
  </g>
</svg>
