<?xml version="1.0" standalone="no"?>
<!DOCTYPE svg PUBLIC "-//W3C//DTD SVG 1.1//EN" "http://www.w3.org/Graphics/SVG/1.1/DTD/svg11.dtd">
<svg xmlns="http://www.w3.org/2000/svg">
<metadata>Copyright (C) 2017 by original authors @ fontello.com</metadata>
<defs>
<font id="icon" horiz-adv-x="1000" >
<font-face font-family="icon" font-weight="400" font-stretch="normal" units-per-em="1000" ascent="850" descent="-150" />
<missing-glyph horiz-adv-x="1000" />
<glyph glyph-name="detali-trub" unicode="&#xe800;" d="M414-146c-92 15-192 73-272 155-80 83-128 173-139 264-6 40-3 51 11 51 5 0 6 30 6 181l0 180-9 4c-9 4-10 6-11 77-1 49 1 74 4 78 7 8 355 8 362 0 3-4 4-29 3-81-1-73-1-74-10-75l-10-2 0-180 0-180 10-4c6-3 10-10 14-29 9-42 47-77 82-77 16 0 28-7 28-17 0-8 4-8 183-8l184 0 3 10c2 5 7 11 11 12 12 5 139 3 148-1 8-4 8-11 8-179 0-143-1-175-6-179-3-3-28-5-80-4-72 1-74 2-78 11l-4 9-184 0-183 0-4-9c-4-8-8-10-25-10-12-1-31 1-42 3z m35 178l0 150-18 5c-43 12-90 62-90 96 0 8-6 8-154 8l-154 0 2-20c4-29 25-91 42-122 59-105 160-197 265-241 29-12 78-24 98-25l9 0 0 149z m538 1l0 150-50 0-50 0 0-150 0-150 50 0 50 0 0 150z m-134-1l-2 128-183 0-183 0-1-128-1-129 185 0 186 0-1 129z m-537 474l0 181-129 0-129 0 0-181 0-182 129 0 129 0 0 182z m21 262l0 48-152 0-152 0 0-48 0-48 152 0 152 0 0 48z" horiz-adv-x="1020" />

<glyph glyph-name="doc" unicode="&#xe801;" d="M0 350l0 500 267 0 266 0 120-121 119-121 1-154 0-154-17 0-16 0 0 141 0 140-115 1-115 2-1 116-1 117-237 0-238 0 0-467 0-467 238 0 237 0 0-17 0-16-254 0-254 0 0 500z m715 270c0 0-39 40-87 87l-87 87 0-88 0-87 87 0c48 0 87 0 87 1z m-156-571l1 200 197 1 198 1 0-200 0-201-199 0-198 0 1 199z m363 1l0 168-75 0-74 0 0-107 0-106 36 36 36 37 12-12 11-12-56-55-56-56-33 33c-18 18-43 44-54 57l-21 24 10 11 11 11 36-35 35-35 0 105 0 104-74-1-73-1-1-167-1-166 165 0 166 0 0 167z m-750 4c-5 3-7 9-6 15l1 10 127 1c123 2 127 1 132-7 3-6 2-10-4-16-8-8-14-9-126-9-89 0-118 2-124 6z m-4 133c-6 6-2 22 5 27 5 2 60 4 151 4 153 0 154 0 151-22l-2-9-151-1c-83-1-152 0-154 1z m2 135c-2 3-5 8-5 12 0 16 3 16 221 16 159 0 213-1 217-5 7-7 6-23-2-25-4-2-101-3-216-3-158 0-211 1-215 5z m0 132c-6 7-6 18 1 24 4 3 65 4 220 3l214-1 2-9c3-22 8-22-220-22-159 0-213 1-217 5z m3 132c-10 6-10 23 0 28 5 3 42 5 91 5 77 0 84-1 91-9 9-9 8-18-4-25-10-5-169-5-178 1z" horiz-adv-x="955" />

<glyph glyph-name="fiting" unicode="&#xe802;" d="M709-141c-11 20 0 37 26 37l15 0 0 159 0 159-66 0-67 0 0-22c0-17-3-25-9-31-9-8-10-8-19 0-9 8-9 14-9 214 0 214 0 217 19 217 11 0 18-14 18-37l0-18 172 0c203 0 207-1 245-39 16-16 28-33 35-51l11-28 1-261 1-262 16 0c25 0 36-17 25-37-4-9-11-9-207-9-195 0-202 0-207 9z m335 296c-1 256-1 260-11 278-13 24-31 41-53 50-15 6-44 8-190 8l-173 0 0-116 0-115 78 0c65 0 79-1 85-7 6-6 7-29 7-182l0-175 129 0 130 0-2 259z m-553 7c-2 2-3 14-3 27l0 25-149 1-149 1-35 18c-41 19-79 53-97 86l-10 21-2 231-1 232-18 0c-16 0-20 2-24 11-4 9-4 15 0 24l5 11 188 0c141 0 190-1 194-5 7-8 7-28 0-36-3-3-12-5-21-5l-15 0 0-134 0-133 67 0 67 0 0 20c0 28 3 35 16 35 8 0 13-4 16-12 3-7 5-90 5-205 0-114-2-197-5-204-4-12-21-17-29-9z m-3 213l0 116-80 0c-56 0-81 1-85 5-4 4-6 45-6 157l0 151-117 0-118 0 1-228 1-227 15-20c17-24 42-43 78-57 27-11 29-12 169-12l142 0 0 115z" horiz-adv-x="1128" />

<glyph glyph-name="kip" unicode="&#xe803;" d="M449-148c-3 0-19 3-36 6-173 28-328 158-386 325-21 60-27 98-27 167 0 70 6 107 27 167 41 118 132 221 245 279 67 34 131 50 210 54 142 5 272-45 373-147 74-75 117-153 138-255 11-48 11-147 0-195-21-102-64-181-138-255-78-79-172-126-279-143-34-5-108-7-127-3z m127 36c150 25 279 120 346 257 89 181 53 392-90 535-71 71-158 116-256 132-203 33-406-72-499-257-27-55-47-140-47-205 0-255 210-465 466-467 23-1 58 2 80 5z m-484 308c-12 12-1 24 31 34 12 4 21 9 21 10 0 2-2 16-6 30-14 65-11 132 11 196 31 95 98 171 189 216 56 28 94 36 162 36 65 0 103-8 156-32 52-24 68-41 52-55-5-4-14-1-52 18-61 30-90 37-156 37-56 0-82-5-128-24-75-30-146-98-179-172-32-70-40-153-20-226l4-14 85 31 86 31 1 40c1 37 2 43 14 66 16 31 51 63 79 74 47 17 87 15 133-8l26-13 90 90c50 50 93 90 97 90 10 0 17-14 12-23-2-4-43-46-92-94l-87-88 8-11c16-22 25-55 24-90l-1-32 83-31c45-16 85-29 87-28 9 4 16 48 16 100-1 61-12 105-41 158-20 38-22 51-5 53 9 1 13-2 23-18 46-72 67-171 52-252-4-20-8-41-9-47-2-9 0-11 24-19 18-7 28-12 30-18 3-9-5-19-15-19-14 0-270 94-277 102-6 6-6 10-3 21 5 20 4 56-3 77-9 26-34 53-62 67-48 23-107 11-143-30-9-10-19-27-22-37-8-22-9-59-2-78 4-11 3-14-3-20-8-8-265-102-278-102-4 0-9 2-12 4z m376 82c-26 12-47 46-47 73 0 31 30 69 59 75 36 7 68-6 88-34 8-12 10-20 10-42 0-31-9-48-34-65-17-12-57-15-76-7z m64 39c12 11 13 15 13 33 0 19-1 23-13 33-11 10-17 12-32 12-14 0-21-2-31-12-12-10-13-14-13-33 0-18 1-22 13-33 10-9 17-12 31-12 15 0 21 3 32 12z" horiz-adv-x="1001" />

<glyph glyph-name="klapany" unicode="&#xe804;" d="M367-141c-21 33-27 49-27 68l0 21-33 31c-47 42-47 43-47 128 0 70 0 71 9 72 9 1 9 3 10 37 1 20 0 42-1 49-2 13-3 13-19 12-15-1-17-2-18-12-1-6-7-15-14-21-11-9-15-10-49-10-45 0-61 6-65 24l-2 12-33 0-34 0 0 82 0 82 33 1c33 1 33 1 34 12 1 6 7 15 14 21 11 9 15 10 48 10 42 0 54-4 63-23 5-11 8-13 23-13l16 0 2 43c1 36 3 47 10 59 7 12 9 21 9 49 0 32 0 34 12 44l12 10 0 101 0 102 108 0 108 0 0-99 0-99 12-12c12-11 12-13 12-47 0-30 1-37 9-47 8-11 9-18 10-58l2-46 16 0c15 0 18 2 23 13 9 19 21 23 63 23 33 0 37-1 48-10 7-6 13-15 14-21 1-11 1-11 34-12l33-1 0-82 0-82-34 0c-30 0-34-1-34-7 0-9-7-18-19-24-5-3-25-5-46-5-35 0-39 1-50 10-7 6-13 15-14 21-1 10-3 11-17 11l-16 0-3-20c-1-11-1-33 0-49 2-25 3-29 10-29 7 0 7-5 7-72 0-55-1-75-6-83-3-6-21-26-40-45-33-33-34-34-34-53 0-16-3-27-15-48l-15-27-57 0c-55 0-57 0-62 9z m105 27c4 8 3 8-44 8-47 0-48 0-44-8 4-7 8-8 44-8 36 0 40 1 44 8z m15 55c1 15 5 20 41 56l40 39 0 57 0 57-138 0-138 0 0-58 0-59 38-37c36-34 38-37 38-53 0-8 1-17 3-18 1-2 28-3 59-2l56 1 1 17z m-169 127c-12 18 5 40 24 31 13-6 16-19 8-31-8-13-24-13-32 0z m89-3c-10 11-8 24 3 31 9 6 11 6 20 0 18-12 11-38-11-38-3 0-9 3-12 7z m88-3c-11 7-9 27 3 34 9 6 11 6 20 0 12-7 13-22 3-31-9-8-16-9-26-3z m53 157c0 45 4 69 14 78 3 4 16 7 30 8l24 2 0 51 0 51-22 2c-11 1-26 5-32 8-10 7-10 8-10 52 0 30-2 48-5 52-4 6-17 7-121 6l-116-1-2-49c-2-60-5-64-43-68l-25-2 0-52 0-51 22 0c17 0 24-2 33-10 11-9 11-10 12-64l2-54 119 0 120 0 0 41z m-336 57c0 10 0 10-36 10-36 0-36 0-36-10 0-10 0-10 36-10 36 0 36 0 36 10z m504 0c0 10 0 10-36 10-36 0-36 0-36-10 0-10 0-10 36-10 36 0 36 0 36 10z m-606 76l0 52-19 1-19 1 0-51c0-28 1-53 3-54 1-2 10-3 19-2l16 1 0 52z m673 1l1 53-19-1-19-1-1-48c-1-26 0-50 1-53 1-4 7-5 19-4l17 1 1 53z m-571-27l0 12-36 0c-35 0-36 0-36-9 0-5 1-11 3-12 1-2 17-3 36-3l33 0 0 12z m503 1l2 11-37 0c-35 0-36 0-36-9 0-5 1-11 3-12 1-2 17-3 35-2 32 1 32 1 33 12z m-503 53l0 14-35-1c-30-1-35-2-36-8-3-17 1-19 37-19l34 0 0 14z m502 0l0 12-34 0c-29 0-34-1-35-7-3-17 1-19 36-18l33 1 0 12z m-502 54l0 12-36 0-36 0 0-12 0-12 36 0 36 0 0 12z m504 0l0 12-36 0-36 0 0-12 0-12 36 0 36 0 0 12z m-184 148l0 24-104 0-104 0 0-24 0-24 104 0 104 0 0 24z m-24 146l0 94-80 0-80 0 0-94 0-94 80 0 80 0 0 94z m-508-374l0 68 14 0 14 0 0-68 0-68-14 0-14 0 0 68z m828 0l0 68 14 0 14 0 0-68 0-68-14 0-14 0 0 68z" horiz-adv-x="856" />

<glyph glyph-name="lock" unicode="&#xe805;" d="M47-143c-20 10-32 23-41 43-5 13-6 47-6 249 0 219 1 235 8 250 4 9 12 21 17 26 12 11 37 21 50 21l11 0 0 69c0 54 1 75 8 103 31 130 140 224 267 231 51 4 96-6 145-30 33-16 44-24 76-56 32-31 40-43 57-78 18-36 21-44 21-67 0-21-2-29-10-40-20-28-58-35-86-16-9 6-17 15-20 20-2 5-10 22-17 37-57 127-228 134-291 12-19-37-24-60-24-128l0-57 238 0c223 0 239 0 255-7 19-10 32-23 40-43 10-22 10-474 0-496-8-20-21-33-40-43-16-7-34-7-329-7-295 0-314 0-329 7z m380 158c8 6 8 6-1 51l-10 46 10 11c28 33 10 89-32 103-57 19-106-51-70-101l10-14-8-36c-9-42-9-54-3-61 8-7 94-7 104 1z" horiz-adv-x="752" />

<glyph glyph-name="menu" unicode="&#xe806;" d="M0-67l0 83 711 0 712 0 0-83 0-83-712 0-711 0 0 83z m0 417l0 83 711 0 712 0 0-83 0-83-712 0-711 0 0 83z m0 417l0 83 711 0 712 0 0-83 0-83-712 0-711 0 0 83z" horiz-adv-x="1423" />

<glyph glyph-name="new-goods" unicode="&#xe807;" d="M448-148c-4 0-20 3-37 6-148 24-286 125-356 262-42 81-55 136-55 231 0 50 2 78 7 100 46 201 191 346 392 392 42 9 157 9 199 0 100-23 187-70 255-138 151-151 190-384 96-574-36-72-95-143-154-184-33-23-37-25-48-17-17 12-11 24 22 49 95 70 157 167 183 286 3 15 5 51 5 88 0 51-2 71-9 99-44 175-166 300-341 346-34 10-47 11-108 11-62 0-74-1-109-11-149-40-266-142-319-278-24-62-30-97-30-169 0-72 6-107 30-169 63-162 221-278 396-290 22-1 42-4 45-7 7-5 7-24 0-30-4-5-47-7-64-3z m-142 183c-20 10-34 30-34 49 0 9 11 51 24 93 14 43 25 81 25 85 0 5-23 24-71 60-39 29-74 57-78 64-14 24-5 60 20 76 10 7 23 8 101 9 97 2 105 0 105-19 0-20-3-21-94-21-64 0-86-1-92-6-15-11-4-23 66-74 38-27 72-55 76-61 12-19 9-37-17-119-13-42-25-80-25-84 0-8 8-16 15-16 3 0 36 22 74 50 38 27 75 51 82 53 24 8 38 1 112-52 39-28 73-51 75-51 7 0 15 8 15 16 0 4-11 42-25 84-26 82-28 100-17 119 5 6 39 34 76 61 71 51 81 63 66 74-6 5-28 6-93 6-92 0-106 3-120 22-3 5-18 46-33 91-28 84-32 91-47 85-4-1-12-20-20-43-14-44-21-53-39-45-14 6-13 18 3 66 18 54 39 72 77 63 26-5 34-18 63-108 16-46 30-85 33-87 2-2 43-3 90-3 74 0 88-1 100-7 30-15 42-53 26-79-3-7-38-35-77-64-49-36-71-55-71-60 0-4 11-42 24-85 14-42 25-84 25-93 0-31-36-59-67-53-7 2-44 26-83 54-39 28-74 51-77 51-4 0-39-23-78-51-76-55-90-61-115-50z" horiz-adv-x="1000" />

<glyph glyph-name="phone" unicode="&#xe808;" d="M445-149c-56 7-124 28-169 50-92 47-179 133-225 226-16 31-35 84-43 125-11 47-11 149 0 197 21 100 67 185 138 255 70 71 155 117 255 138 48 11 150 11 197 0 100-21 185-67 256-138 70-70 116-155 138-255 10-48 10-150 0-197-22-99-68-185-138-255-68-69-151-115-248-137-33-7-130-13-161-9z m163 74c83 23 140 56 202 119 87 88 127 183 127 306 0 124-40 219-127 307-63 63-119 96-204 119-29 8-43 9-106 10-80 0-109-6-170-31-100-42-193-135-235-235-25-61-30-90-30-170 0-63 1-76 9-106 21-79 56-140 111-197 65-67 141-109 232-128 41-9 150-5 191 6z m39 146c-198 18-365 161-415 357-10 40-17 110-12 128 5 16 59 69 75 73 6 1 13 3 16 4 8 2 35-7 49-17 17-13 26-31 39-84 14-55 11-69-16-99-10-10-18-21-18-24 0-11 36-80 53-101 30-37 80-72 129-89 15-5 15-5 35 14 30 28 44 31 99 17 24-6 51-15 59-19 30-15 46-49 39-81-3-13-10-23-33-46-19-19-34-31-43-34-8-2-15-3-16-3-1 0-19 2-40 4z" horiz-adv-x="999" />

<glyph glyph-name="radiatory" unicode="&#xe809;" d="M133-141c-28 17-27 3-27 398l0 359-36 0-35 0 0-26 0-27-17 0-18 0 0 126 0 125 18 0 17 0 0-26 0-27 35 0 36 0 0 20c0 27 9 49 27 59 13 9 20 9 68 8l54-1 14-14c13-13 15-18 16-43l2-29 26 0 26 0 0 20c0 27 10 49 27 59 13 8 22 9 63 9 30 0 53-2 59-5 19-10 31-33 31-59l0-24 27 0 26 0 0 22c0 28 9 46 28 58 21 12 104 12 125-1 18-10 28-32 28-59l0-20 26 0 26 0 1 29c2 25 4 30 16 43l14 14 54 1c48 1 56 1 69-8 17-10 27-32 27-59l0-20 36 0c54 0 52 3 52-72 0-75 2-73-52-73l-36 0 0-266 0-267 44 0c64 0 62 4 62-72 0-43-2-64-6-68-3-3-21-5-52-5l-48 0 0-20c0-27-10-48-27-59-13-8-21-9-69-8l-54 1-14 14c-12 13-14 18-16 43l-1 29-26 0-26 0 0-24c0-17-3-27-10-38-16-24-26-26-86-25l-54 1-14 14c-12 13-14 18-16 43l-2 29-25 0-26 0-1-29c-2-25-4-30-16-43l-15-14-53-1c-38-1-57 0-65 4-18 10-28 28-30 57l-2 26-25 0-26 0-2-29c-1-27-3-30-18-44l-16-15-52 0c-44 0-54 1-66 9z m113 31c4 4 5 112 5 458 0 405-1 453-7 459-5 5-17 7-48 7-39 0-42-1-48-10-6-9-7-62-6-460 1-395 2-451 8-455 10-6 89-5 96 1z m234 4c3 5 4 156 4 457 0 402 0 450-7 456-10 10-86 10-96 0-6-6-7-54-7-457 0-404 1-452 7-458 5-5 17-7 51-7 38 0 44 1 48 9z m231-2c6 6 7 54 7 458 0 403-1 451-7 457-10 10-87 10-97 0-6-6-7-54-7-456 0-301 2-452 5-457 4-8 10-9 48-9 34 0 45 2 51 7z m231-3c6 4 7 60 8 455 1 398 0 451-6 460-6 9-9 10-48 10-32 0-43-2-48-7-7-6-7-54-7-459 0-346 1-454 5-458 6-6 86-7 96-1z m-603 122l0 37-26 0-27 0 0-37 0-38 27 0 26 0 0 38z m233 0l0 37-26 0-27 0 0-37 0-38 27 0 26 0 0 38z m234 0l0 37-27 0-26 0 0-37 0-38 26 0 27 0 0 38z m250 0l0 37-35 0-35 0 0-37 0-38 35 0 35 0 0 38z m-717 339l0 266-26 0-27 0 0-266 0-267 27 0 26 0 0 267z m233 0l0 266-26 0-27 0 0-266 0-267 27 0 26 0 0 267z m234 0l0 266-27 0-26 0 0-266 0-267 26 0 27 0 0 267z m-700 339l0 37-36 0-35 0 0-37 0-38 35 0 36 0 0 38z m233 0l0 37-26 0-27 0 0-37 0-38 27 0 26 0 0 38z m233 0l0 37-26 0-27 0 0-37 0-38 27 0 26 0 0 38z m234 0l0 37-27 0-26 0 0-37 0-38 26 0 27 0 0 38z m233 0l0 37-27 0-26 0 0-37 0-38 26 0 27 0 0 38z" horiz-adv-x="1092" />

<glyph glyph-name="santehnika" unicode="&#xe80a;" d="M282-138c-13 11-13 12-14 51-2 61 8 75 56 75l24 0 0 60 0 61-9 0c-33 0-80 33-99 71-10 19-11 25-13 80-1 60-1 60-11 60-5 0-14 4-20 9-11 9-12 13-14 44l-2 34-46 1c-27 0-51 3-56 6-21 10-21 16-21 171l0 144-12 0c-18 0-33 8-39 20-7 13-8 63-2 78 8 23 11 23 219 23l191 0 11-12c12-11 12-13 12-47 0-19-2-38-4-42-5-11-25-20-40-20-16 0-16-7 0-11 16-3 35-22 37-37 4-27-13-51-38-56l-11-3 0-90 0-91 289 0c312 0 309 0 323-21 5-6 7-18 7-42 0-29-1-35-9-44-5-6-16-12-23-14l-15-3-2-38c-3-48-18-82-50-115-40-41-92-59-175-59l-41 0-8-15c-11-22-34-37-64-42-30-4-38-13-38-41l0-19 27 0c45-1 54-13 54-71 0-39 0-40-14-53l-14-14-166 0-166 0-14 12z m339 57l0 34-159 0-160 0-2-26c0-14 0-30 1-35l3-10 159 1 158 1 0 35z m-78 98c2 25 4 29 16 42 11 11 20 15 42 20 19 4 31 9 38 16l11 10-133 0-132 0 0-59 0-59 78 2 77 1 3 27z m249 125c49 9 89 38 112 83 10 20 13 30 14 59l2 36-331 0-331 0 2-56c1-52 2-57 12-75 14-23 34-39 59-46 25-7 425-8 461-1z m175 237c1 24 0 26-8 28-5 1-174 1-376 1l-366-1-2-28-1-27 376 1 376 1 1 25z m-619 206l0 144-129 0-130 0 0-141c0-78 1-143 3-144 1-2 60-3 129-3l127 0 0 144z m42 73c8 3 9 18 2 25-8 9-11 6-11-11 0-17 0-18 9-14z m14 132l1 28-185-1-186-1-1-22c-1-12 0-24 1-28 2-4 33-5 186-4l183 1 1 27z" horiz-adv-x="1000" />

<glyph glyph-name="teploizolyacia" unicode="&#xe80b;" d="M126-139c-3 7-33 150-68 320-53 258-62 308-56 312 4 2 112 4 246 4l240 1-15 53c-24 89-13 126 56 196 100 99 248 129 391 80 51-18 78-36 94-61 29-46 178-393 194-451 20-71 14-162-14-231-42-103-135-184-253-220-36-11-39-11-423-12l-387-2-5 11z m827 37c82 30 162 95 198 162 27 51 36 82 38 141 5 105-24 184-93 252-61 61-133 91-219 91-158 0-283-113-292-263-5-76 22-145 76-200 51-52 109-74 183-70 76 4 131 32 174 87 50 67 57 147 17 222-35 66-112 105-185 93-81-13-144-88-135-160 9-69 55-114 118-114 47 0 81 23 94 63 12 35-11 81-40 81-17 0-22-6-20-28 2-32-20-41-42-19-18 18-16 39 5 61 17 17 18 17 50 15 27-1 34-4 48-16 21-20 29-41 29-75 0-48-30-87-79-104-123-42-233 95-176 218 19 41 48 70 90 90 31 14 37 15 85 15 49 0 55-1 86-16 140-66 169-253 57-367-103-105-273-103-379 4-52 53-62 75-107 252l-38 152-235 1c-187 1-234 0-232-5 1-3 28-132 59-287 32-155 59-284 60-288 2-5 77-6 382-5l380 2 43 15z m-366 503c58 112 176 177 310 170 76-4 123-22 198-77 11-7 10-5-6 34-10 23-25 58-33 79-35 86-56 133-68 149-16 21-69 46-122 58-30 6-54 8-97 6-65-3-109-15-159-45-64-38-121-109-121-150 0-11 16-82 35-157 19-75 35-137 35-139 0-2 4 9 9 24 5 15 14 37 19 48z" horiz-adv-x="1219" />

<glyph glyph-name="attention" unicode="&#xe80c;" d="M0 350q0 95 37 182t100 149 149 100 183 37q95 0 181-37t150-100 100-149 37-182q0-95-37-182t-100-150-150-100-181-37q-96 0-183 37t-149 100-100 150-37 182z m387 196l27-244q2-21 17-35t36-17q24-3 43 12t21 40l27 244v17q-4 35-31 58t-63 19-58-31-19-63z m12-411q0-30 22-52t51-21 52 21 22 52-22 52q-20 20-52 20t-51-20q-22-22-22-52z" horiz-adv-x="937.5" />

<glyph glyph-name="vodootvedenie" unicode="&#xe80d;" d="M421-144c-46 7-115 30-155 52-59 32-119 81-156 128l-17 23 13 12c15 14 16 29 4 41-10 10-25 11-39 2l-10-7-14 30c-42 91-56 190-41 287 6 43 27 113 33 112 2-1 10-4 17-6 12-5 14-5 24 3 8 5 12 13 13 21 1 12-4 19-26 32-7 4-5 7 16 39 71 109 181 184 310 213 47 11 53 10 53-2 0-5 4-14 9-20 17-22 49-9 49 20 0 14 0 14 15 14 32 0 98-13 140-27 92-31 169-84 231-161l24-30-10-11c-13-14-14-29-1-41 10-10 19-10 36-3 5 2 9-3 19-27 48-117 55-236 18-350l-11-37-15 2c-29 2-42-27-22-49l10-10-22-33c-76-114-200-194-334-217-14-2-15-1-20 12-11 31-54 24-54-10 0-8-2-8-26-8-14 0-41 3-61 6z m62 26c0 10 23 29 38 33 21 6 49-3 59-18 8-12 15-11 68 6 91 30 169 86 227 163 25 33 25 35 20 46-8 14-7 39 1 54 7 14 28 28 41 28 7 0 10 4 15 24 14 52 17 75 17 132 0 66-7 106-26 159l-11 31-18 3c-13 3-23 8-33 18-13 13-14 17-14 36 0 12 1 26 3 33 3 10 1 14-39 53-77 76-169 121-270 134l-28 3-6-14c-18-38-78-40-99-4-6 11-8 12-24 9-26-4-85-25-114-39-65-33-136-94-173-148l-16-24 9-10c6-6 10-17 11-28 4-34-17-59-54-64l-16-3-7-28c-24-95-18-197 16-285l12-31 20-2c25-3 40-12 49-31 8-17 8-36 0-51-6-12-6-13 2-24 13-19 61-61 92-83 53-36 109-59 168-71 51-10 80-12 80-7z m-63 84c-154 35-271 152-304 307-7 36-7 118 0 154 17 81 54 147 114 204 77 74 163 108 270 108 111 0 204-39 281-119 33-35 48-56 68-96 32-64 42-112 39-191-1-49-4-65-13-94-46-142-155-242-297-273-34-7-125-7-158 0z m165 17c71 17 124 48 179 102 56 56 85 108 103 181 10 39 10 129 0 167-16 67-46 123-92 172-51 54-113 91-183 110-47 13-138 13-184 0-71-19-133-56-183-110-69-73-100-153-100-255 0-102 31-182 100-255 59-63 126-100 211-117 36-6 112-4 149 5z m-130 23c-141 19-255 121-292 260-12 46-12 122 0 168 32 122 129 220 253 252 46 13 122 13 168 0 123-32 220-130 252-252 12-46 12-122 0-168-39-149-165-253-318-262-20-1-49 0-63 2z m117 35c27 6 85 31 101 43 8 6 8 6-4 14-19 13-46 11-67-6-26-19-49-29-69-29-21 0-35 7-53 26-26 27-66 24-100-7l-19-18 21-9c64-24 123-29 190-14z m-199 57c18 17 39 26 63 26 25 0 38-5 59-25 16-16 19-18 39-18 19 0 25 2 40 14 43 32 74 37 107 15l17-11 27 28c15 16 30 32 32 37 4 7 3 8-17 8-23 0-38 6-64 28-14 12-20 15-37 15-16 0-23-3-38-14-49-38-80-40-116-7-20 19-31 22-59 20-17-2-24-5-39-19-35-32-71-32-98 1-13 16-17 19-31 19-11 0-20-3-27-10l-11-9 21-29c18-26 55-62 82-81 15-10 32-6 50 12z m1 108c22 20 34 25 63 25 27 0 44-7 63-26 12-13 16-15 34-15 13 0 25 3 32 7 50 34 50 34 73 34 24 0 28-2 62-28 14-11 21-13 38-13 29 0 41 9 54 39 10 24 22 68 22 79 0 8-5 6-26-10-16-13-23-16-43-17-26-2-43 5-71 29-13 10-19 13-35 13-17 0-24-3-54-24-19-13-42-27-51-32-39-17-87-2-110 33-12 20-13 21-23 15-6-3-15-9-19-14-13-14-29-21-50-21-18 0-21 2-38 20-11 12-24 22-30 23-13 4-38-7-44-17-2-5-10-13-18-17l-14-9 5-17c3-10 8-25 12-33l7-16 11 8c7 6 16 9 30 9 26 0 36-5 50-25 11-15 13-16 32-16 18 0 22 2 38 16z m162 94c36 26 31 86-9 105-43 20-92-13-88-60 4-35 30-58 65-55 11 1 25 5 32 10z m-165 13c11 10 24 19 29 22 7 3 10 7 10 19 0 8 4 23 8 33l8 18-8 7c-9 7-22 9-47 8-17-1-26-7-44-24-14-13-19-15-43-17l-26-1-20 21c-15 17-22 21-33 21-7 1-14 0-15-1-7-8-9-118-2-118 2 0 11 7 20 16 18 18 32 25 51 25 17-1 28-7 46-28 13-15 17-17 31-17 12 0 20 3 35 16z m400-6c7 5 21 14 29 19 8 5 16 12 17 16 2 9-5 75-9 78-6 6-42-3-58-15-32-22-42-26-66-26-24 0-36 6-67 31-8 7-16 10-31 10-12 0-21-1-21-2 0-1 6-12 13-26 11-20 12-27 11-46l-1-23 18 9c30 16 58 11 87-14 27-24 55-28 78-11z m-454 104c27 24 34 26 64 27 21 0 30-2 42-9l16-10 21 11c24 11 49 13 70 4 12-5 16-5 30 0 9 3 19 6 24 6 15 0 38-11 57-26 19-16 41-22 61-18 5 2 19 10 31 19 16 12 29 18 46 21 13 3 24 7 24 9 0 2-7 18-15 36-17 37-19 39-61 36-22-1-29-4-44-15-29-22-41-27-62-26-24 0-38 6-64 27-14 13-20 15-36 15-16 0-24-3-46-19-15-10-35-20-43-22-27-6-52 3-68 23-11 13-30 19-54 17-19-1-25-4-42-19-18-15-39-25-55-25-6 0-17-20-17-30 0-1 8-3 17-5 9-2 20-7 25-13 26-29 28-30 44-30 13 0 20 3 35 16z m-63 98c26 23 33 25 64 25 30 0 43-6 64-28 10-11 15-13 34-13 18 0 24 2 40 14 28 22 41 27 65 27 22 0 27-2 61-27 14-11 21-14 39-14 18 0 24 3 40 15 26 20 44 26 70 26 13 0 23 2 23 4 0 3-12 17-26 32l-25 27-20-16c-17-13-24-16-46-17-28-2-42 3-69 26-14 12-20 14-37 14-19 0-24-2-47-19-24-17-29-20-52-21-28-2-47 5-57 21-9 13-24 19-47 19-19 0-22-2-43-21-22-20-52-58-64-80-4-9-3-10 5-10 6 0 18 7 28 16z m211 85c34 24 44 28 66 28 22 0 34-6 62-28 15-12 22-15 36-15 20 0 37 7 48 20 8 8 7 9-5 17-21 15-70 36-101 43-38 8-104 8-142 0-29-7-95-34-87-37 2 0 9-2 15-3 6-1 19-11 29-21 17-17 21-19 39-19 17 0 24 3 40 15z" horiz-adv-x="1000" />

<glyph glyph-name="zawita-trub" unicode="&#xe80e;" d="M1089-134c-13 18-34-2 203 204l75 65 15-15c13-13 13-16 4-24-21-21-282-246-284-246-1 0-7 7-13 16z m-126 43c-12 17-12 18 0 27 9 7 10 9 3 7-7-2-87 72-221 204l-210 206-109 0-109 0 0-33c0-53-7-56-119-56-89 0-94 1-104 15-6 9-11 29-11 45l0 29-42 0-41 0 0 204 0 203 41 0 40 0 3 39c2 23 8 41 13 45 6 3 52 6 104 6 111 0 116-2 116-56l0-34 542 0 541 0 0 34c0 54 6 56 117 56 51 0 98-3 104-6 5-4 11-22 13-45l3-39 40 0 41 0 0-203 0-204-42 0-41 0 0-29c0-16-5-36-11-45-10-14-15-15-106-15-111 0-118 3-118 57l0 32-93 0-94 0 47-51c47-53 53-58 61-45 6 9 15 3 24-14 6-11-15-33-167-170-96-86-180-162-188-169-13-11-14-11-27 5z m99 119c45 37 197 174 199 180 1 3-51 61-116 129-96 101-117 126-116 141 2 13 7 17 24 19 18 2 25-4 57-40l36-41 127 0 127 0 0 144 0 145-541 0-542 0 0-145c0-79 1-145 2-145 1-1 57-3 123-5l122-5 216-211c217-212 217-212 234-201 10 6 31 22 48 35z m-807 529l0 231-55 0-55 0 0-231 0-231 55 0 55 0 0 231z m1318 0l0 231-55 0-55 0 0-231 0-231 55 0 55 0 0 231z m-1490 4c0 135-1 145-12 143-11-2-12-16-14-145-2-140-2-143 12-143 13 0 14 4 14 145z m1578-2c-2 129-3 143-14 145-11 2-12-8-12-143 0-141 0-145 14-145 14 0 14 3 12 143z" horiz-adv-x="1718" />

<glyph glyph-name="armatura" unicode="&#xe80f;" d="M55-143c-4 4-6 13-6 26l0 20-25 0-24 0 0 153 0 152 24 0 25 0 0 17c0 31 1 32 65 32 31 0 59-1 62-3 5-1 7-8 7-24l0-22 26 0 27 0 0 47c0 52 1 55 32 55l16 0 0 16c0 32 2 32 64 32l54 0 0 63c0 46 2 64 5 67 3 2 15 5 26 5l20 2 0 58c0 57 0 59-8 59-7 0-8-3-9-21-1-11-4-23-7-25-4-4-29-5-83-4l-76 2-20 12c-13 8-25 20-32 32-13 20-13 21-14 85-1 63-1 65 10 87 21 44 52 55 142 53 53-1 58-2 76-12 11-7 21-12 22-12 0 0 1 7 1 16 0 23 5 25 49 25 44 0 49-2 49-25 0-9 0-16 1-16 1 0 11 5 21 12 19 10 24 11 77 12 89 2 120-9 142-52 10-21 11-25 11-85l0-64-14-22c-9-15-19-26-33-34l-20-12-77-2c-54-1-78 0-82 4-3 2-6 14-7 25-1 18-2 21-9 21-8 0-8-2-8-59l0-58 20-2c11 0 22-3 25-5 4-3 5-21 5-67l0-63 55 0c62 0 63 0 63-32l0-16 17 0c31 0 32-3 32-55l0-47 26 0 27 0 0 22c0 16 1 23 6 24 4 2 32 3 63 3 64 0 65-1 65-32l0-17 24 0 25 0 0-152 0-153-25 0-24 0 0-20c0-31-3-33-69-33-40 0-57 2-60 6-3 3-5 14-6 25l-1 20-319 0-319 0-1-20c-1-11-4-22-6-25-7-9-114-8-123 1z m95 197l0 170-32 0-33 0 0-170 0-171 33 0 32 0 0 171z m772 0l0 170-32 0-33 0 0-170 0-171 33 0 32 0 0 171z m-873 0c0 115 0 118-8 118-8 0-8-3-8-118 0-115 0-118 8-118 8 0 8 3 8 118z m776 0l0 118-321 0-321 0 0-118 0-118 321 0 321 0 0 118z m150 0c0 115 0 118-8 118-8 0-8-3-8-118 0-115 0-118 8-118 8 0 8 3 8 118z m-235 187l0 32-236 0-236 0 0-32 0-33 236 0 236 0 0 33z m-53 77c0 8-3 8-183 8-180 0-183 0-183-8 0-8 3-8 183-8 180 0 183 0 183 8z m-115 92l1 50-69 0-69 0 0-48c0-27 1-49 3-51 1-1 32-2 68-2l65 1 1 50z m-52 143l0 61-16 0-16 0 0-61 0-60 16 0 16 0 0 60z m-118 60c0 35-4 34 102 34 106 0 101 1 101-35l0-19 60 2c66 1 79 5 96 29 8 10 9 18 10 69 1 65-2 78-27 95-14 9-17 10-82 8l-67-1-24-19c-49-38-85-38-134 0l-24 19-68 1c-64 2-67 1-81-8-24-16-28-30-28-90 0-58 4-74 25-89 15-11 32-14 89-14l52-1 0 19z m112 170c4 2 6 8 6 19 0 15 0 16-16 16-16 0-16-1-16-16 0-19 9-25 26-19z" horiz-adv-x="1008" />

<glyph glyph-name="cart" unicode="&#xe810;" d="M223-145c-24 8-54 35-67 61-9 17-11 26-11 51 0 25 2 35 11 52 13 26 44 53 67 59 19 6 20 8 11 38-6 20-90 479-108 588-5 30-9 58-11 62-1 6-8 7-58 7l-57 0 0 38 0 39 91 0 91 0 17-104c17-94 19-104 27-105 4-1 180-23 390-48 211-24 383-45 384-46 0 0-21-94-47-208l-48-207-296-1-297-1 3-11c1-5 4-15 5-22l2-12 272 0c265 0 273 0 295-8 77-29 100-132 42-190-26-26-49-36-85-36-36 1-59 10-82 33-27 26-34 43-34 86l0 38-177 0-178 0 2-28c3-36-3-59-22-84-30-39-85-56-132-41z m67 88c13 15 14 31 2 46-12 16-26 20-42 15-17-6-26-18-26-36 0-18 6-29 21-36 17-7 31-4 45 11z m579-6c5 3 11 11 14 18 4 11 4 15-2 27-12 26-44 33-63 12-19-20-13-48 12-60 14-7 24-7 39 3z m-25 282c6 22 59 258 58 260-2 2-668 82-669 80-1 0 13-79 30-174l31-174 274 0c257 0 274 1 276 8z" horiz-adv-x="1000" />

<glyph glyph-name="collectors" unicode="&#xe811;" d="M255-131c0 18 6 19 122 19 68 0 126 0 130 0 4 0 9-8 10-19 3-18-1-19-130-19-126 0-132 1-132 19z m528-1c0 17 9 19 128 22 71 1 131-1 133-5 3-4 3-14 0-21-5-11-30-14-133-14-120 0-128 1-128 18z m519 1c0 18 6 19 117 19 65 0 124 2 132 5 11 5 15 0 15-18l0-25-132 0c-126 0-132 1-132 19z m528 0c0 18 7 19 117 19 65 0 124 2 132 5 12 5 15 0 15-18l0-25-132 0c-125 0-132 1-132 19z m-1594 94l0 38-118 0c-112 0-118 1-118 19 0 18 6 19 118 19 72 0 118 3 118 9 0 5 8 10 19 10 16 0 19-7 19-43l0-42 113 0 113 0 0 42c0 36 3 43 19 43 10 0 19-5 19-10 0-6 44-9 113-9 69 0 113 3 113 9 0 5 9 10 19 10 16 0 19-7 19-43l0-42 108 0 109 0 0 42c0 39 2 43 24 43 12 0 23-5 23-10 0-6 43-9 109-9 66 0 108 3 108 9 0 5 9 10 19 10 16 0 19-7 19-43l0-42 113 0 113 0 0 42c0 36 3 43 19 43 10 0 19-5 19-10 0-6 44-9 113-9 69 0 113 3 113 9 0 5 9 10 19 10 16 0 19-7 19-43l0-42 113 0 114 0 0 42c0 36 2 43 18 43 11 0 19-5 19-10 0-6 46-9 118-9 112 0 118-1 118-19 0-18-6-19-118-19l-118 0 0-38 0-38-151 0-151 0 0 38 0 39-110-3-111-3-3-35-3-36-148 3-148 2-3 36-3 35-107 0-108 0-3-35-3-36-148-2-148-3-3 36-3 35-110 3-111 3 0-39 0-38-151 0-151 0 0 38z m0 467c0 12-19 14-118 14-112 0-118 1-118 19 0 18 6 19 118 19l118 0 0 92c0 82-2 94-19 104-16 10-19 22-19 82 0 60 3 72 18 80 11 6 85 10 174 10 151 0 157-1 171-21 22-31 19-112-4-142-16-20-19-38-19-114l0-91 113 0 113 0 0 91c0 82-2 92-21 107-18 15-21 27-21 78 0 93-3 92 188 92 113 0 165-3 173-11 17-17 15-144-3-159-11-9-14-33-14-105l0-93 109 0 108 0 0 93c0 81-2 95-19 110-15 14-19 29-19 75 0 89 2 90 191 90 189 0 187 1 187-95 0-55-3-67-19-77-17-10-19-22-19-104l0-92 113 0 113 0 0 92c0 81-2 95-18 109-16 13-19 28-19 77 0 90-1 90 188 90 188 0 189 0 189-93 0-46-4-61-19-74-16-14-19-28-19-109l0-92 118 0c112 0 118-1 118-19 0-18-6-19-118-19-98 0-118-2-118-14 0-8-8-14-19-14-18 0-18 6-18 127l0 128-114 0-113 0 0-128c0-121-1-127-19-127-10 0-19 6-19 14 0 12-18 14-108 14-88 0-110-2-115-14-3-8-13-14-23-14-17 0-18 9-18 128l0 127-111-2-110-3-3-125c-2-104-5-125-17-125-8 0-17 6-20 14-8 22-208 21-225-1-6-10-17-14-27-10-13 5-15 23-15 129l0 123-109 0-108 0 0-123c0-105-2-124-15-129-10-3-19 0-24 10-13 22-225 23-225 1 0-8-9-14-19-14-18 0-19 6-19 127l0 128-113 0-113 0 0-128c0-121-1-127-19-127-11 0-19 6-19 14z m28 330c0 40-3 52-14 52-11 0-14-12-14-52 0-39 3-51 14-51 11 0 14 12 14 51z m104 0l0 52-33 0-33 0 0-52 0-51 33 0 33 0 0 51z m102-2c-3 48-4 50-34 53l-30 3 0-53 0-52 33 0 34 0-3 49z m63 2c0 29-4 48-12 50-8 3-12-11-12-50 0-38 4-52 12-49 8 2 12 21 12 49z m260 0c0 40-4 52-15 52-11 0-14-12-14-52 0-39 3-51 14-51 11 0 15 12 15 51z m94 0c0 52 0 52-28 52-28 0-29 0-29-52 0-51 1-51 29-51 28 0 28 0 28 51z m104 0c0 52-1 52-29 52-28 0-28 0-28-52 0-51 0-51 28-51 28 0 29 0 29 51z m66 1c0 69-23 66-27-4-2-39 0-48 12-48 11 0 15 11 15 52z m262-3c-2 37-7 50-17 50-10 0-15-12-17-37-4-45 2-62 22-62 12 0 14 9 12 49z m96 2c0 52 0 52-28 52-28 0-28 0-28-52 0-51 0-51 28-51 28 0 28 0 28 51z m104 0l0 52-33 0-33 0 0-52 0-51 33 0 33 0 0 51z m66 0c0 40-3 52-14 52-11 0-14-12-14-52 0-39 3-51 14-51 11 0 14 12 14 51z m255 0c0 40-4 52-14 52-11 0-15-12-15-52 0-39 4-51 15-51 10 0 14 12 14 51z m103 1l0 53-30-3c-30-3-31-5-34-53l-3-49 34 0 33 0 0 52z m104-1l0 52-33 0-33 0 0-52 0-51 33 0 33 0 0 51z m64-3c-4 70-26 73-26 4 0-41 3-52 15-52 11 0 14 9 11 48z" horiz-adv-x="2349" />

<glyph glyph-name="bolt" unicode="&#xe812;" d="M748-109c-23 22-119 116-213 208l-172 168-87-20c-48-12-92-21-97-21-8 0-32 21-95 83l-84 83 20 83c11 46 21 86 22 90 1 4 57 60 124 125l122 119 91 20 91 21 61-59c34-32 74-70 87-84l25-25-18-77c-10-42-20-83-23-91l-5-15 121-119c67-65 164-159 215-210l94-92-2-16c-4-24-25-54-74-105-49-51-85-80-115-96-34-19-40-17-88 30z m90 14c34 23 115 103 136 134l16 24-25 25c-14 14-26 25-27 25-1 0-6-6-11-13-26-41-108-122-153-151l-20-13 24-24c13-14 26-25 29-25 3 0 17 8 31 18z m-75 81c36 27 121 112 135 137l12 21-22 20c-13 11-24 20-26 20-1 0-9-10-18-22-19-29-110-118-139-136-12-8-22-16-22-17 0-5 40-42 47-42 3 0 19 9 33 19z m-79 70c34 22 114 102 135 134l16 24-22 23c-13 12-24 22-25 22-2 0-6-7-11-15-12-22-121-130-149-148l-24-14 22-22c12-12 24-22 26-22 3 0 17 8 32 18z m-34 105c37 32 91 91 103 114l7 14-20 21c-12 11-23 20-25 20-3 0-9-8-15-17-20-34-139-146-164-155-3-1 3-11 17-25l23-24 20 12c11 6 35 24 54 40z m-117 38c29 19 133 124 144 145l8 16-23 23-23 23-17-24c-28-41-111-120-159-151-7-4-6-6 15-26 13-11 25-21 28-21 2 0 14 7 27 15z m-77 72c49 32 152 140 152 160 0 3-8 15-19 25l-18 18-92-90-92-89 19-20c11-11 21-20 23-20 1 0 13 8 27 16z m-213 5c30 7 56 14 60 15 4 2-11 19-46 55-29 28-57 56-64 60l-11 9-56-13c-30-7-58-14-61-15-4-2 15-23 56-63 35-33 64-60 66-60 1 0 27 5 56 12z m208 132c55 55 101 101 101 104 0 2-29 32-63 66l-63 61-104-102-105-102 65-63c35-34 65-62 66-62 1 0 47 44 103 98z m-333 29l61 15 28 26c15 14 66 64 114 111l88 86 16 64c9 36 16 65 15 66-1 0-31-6-68-14l-66-16-113-110-114-111-15-58c-16-64-18-74-12-74 2 0 32 7 66 15z m424 292c-33 32-62 60-63 60-2 1-10-25-18-58l-15-60 63-61 63-61 16 60 15 61-61 59z" horiz-adv-x="1027" />

<glyph glyph-name="brand" unicode="&#xe813;" d="M5-145c-7 7-7 983 0 990 8 7 1007 7 1014 0 7-7 7-983 0-990-7-7-1006-7-1014 0z m986 495l0 467-479 0-479 0 0-467 0-467 479 0 479 0 0 467z m-505-350c-24 10-47 45-47 68 0 44 37 81 79 81 31 0 66-23 76-50 10-26 3-61-16-82-18-21-64-30-92-17z m58 26c31 20 37 57 11 81-12 11-18 14-33 14-32 0-55-22-55-52 0-25 26-50 54-50 5-1 16 3 23 7z m65 87l-54 53-135 0-135 0-96 82c-53 46-98 85-100 88-2 4-1 9 2 12 4 5 46 6 289 6l284 0 127-136c70-75 128-138 130-141 1-3-1-8-3-12-5-5-25-6-131-6l-125 0-53 54z m-516 264c-8 9 6 24 100 105l103 89 134 0 134 0 55 49 55 49 74 0c40 0 96-2 123-3 42-2 49-4 50-10 1-4-43-54-127-144l-128-137-285 0c-157 0-286 1-288 2z m673 142l113 120-49 2c-27 2-71 3-97 3l-48 1-56-49-56-49-134 0-133-1-86-73-85-74 260 0 259 0 112 120z m-177-112c-65 21-70 109-8 136 66 30 130-46 90-106-16-25-54-39-82-30z" horiz-adv-x="1025" />

<glyph glyph-name="sale" unicode="&#xe814;" d="M49-132c-16 10-34 26-39 36-7 12-10 162-10 447 0 470-2 454 56 483 40 21 2159 21 2199 0 58-29 56-13 56-485 0-472 2-456-56-485-23-12-166-14-1101-14-1049 0-1076 0-1105 18z m2180 62c16 14 17 39 17 418 0 361-2 403-15 419-15 16-60 17-1074 17-972 0-1060-2-1075-16-16-14-17-39-17-417 0-362 1-404 15-419 15-17 60-17 1074-17 972 0 1060 1 1075 15z m-1919 159c-25 5-28 10-31 42l-3 35 31-8c17-4 73-8 124-8 87 0 96 2 118 23 31 29 32 68 2 96-13 12-59 35-103 53-103 40-152 82-159 134-11 91 59 152 181 159 39 2 87 0 108-4 32-7 37-12 39-36l3-28-106 1c-120 0-144-11-144-65 0-40 25-61 129-105 116-50 148-83 148-153 0-98-73-145-226-143-46 1-96 4-111 7z m402-2c0 4 40 122 89 264l89 257 53 0 53 0 85-252c47-138 85-256 84-261 0-5-16-11-36-12l-37-3-20 61-20 60-113 0-113 0-18-58-19-57-38-3c-22-2-39 0-39 4z m314 186c0 10-82 253-87 259-2 2-21-51-43-119-21-67-40-128-43-135-4-9 14-12 84-12 49 0 89 3 89 7z m250 71l0 264 36 0 37 0 0-231 0-231 121 0 120 0 0-33 0-32-157 0-157 0 0 263z m415 0l0 264 158 0 157 0 0-28 0-28-120 0-121 0 0-83 0-83 116 0 115 0 0-28 0-27-115 0-116 0 0-93 0-92 121 0 121 0-3-30-3-30-155-3-155-2 0 263z" horiz-adv-x="2311" />

<glyph glyph-name="gift" unicode="&#xe815;" d="M53-142c-3 5-4 104-4 291l0 284-19 0c-11 0-22 2-25 5-7 7-7 174 0 181 4 3 32 5 100 5l94 0-14 16c-51 60-29 161 45 197 63 31 143 7 206-61 23-24 58-77 58-87 0-11 9-8 14 5 18 42 65 98 106 125 85 55 181 34 219-48 19-42 12-97-17-131l-14-16 94 0c68 0 96-2 100-5 7-7 7-174 0-181-3-3-14-5-25-5l-19 0 0-284c0-187-1-286-4-291-4-8-14-8-448-8-434 0-443 0-447 8z m316 300l0 275-143-1-143-1-1-274-1-275 144 0 144 0 0 276z m231 79l0 354-100 0-99 0 0-354 0-355 99 0 100 0 0 355z m319-80l-1 274-143 1-143 1 0-275 0-276 144 0 144 0-1 275z m-550 371l0 63-168 0-168 0 0-63 0-62 168 0 168 0 0 62z m599 0l0 63-168 0-168 0 0-63 0-62 168 0 168 0 0 62z m-488 107c-1 6-9 26-18 44-39 83-100 133-166 138-30 2-52-5-76-25-41-35-40-109 2-144 26-22 41-24 156-24l105 0-3 11z m264-6c41 13 67 48 67 92 0 41-21 72-61 90-37 16-100 1-141-35-35-30-79-101-89-141l-2-11 103 0c79 0 107 1 123 5z" horiz-adv-x="1001" />
</font>
</defs>
</svg>
